<?xml version="1.0" encoding="UTF-8"?>
<svg version="1.1" xmlns="http://www.w3.org/2000/svg" width="1254" height="1254">
<path d="M0 0 C0.33 0.99 0.66 1.98 1 3 C5.46628401 2.93094752 9.93167585 2.84289769 14.3972168 2.73754883 C15.91501621 2.70438084 17.43293656 2.67632368 18.95092773 2.65356445 C21.13838019 2.61986722 23.32473264 2.56754796 25.51171875 2.51171875 C26.82615967 2.48553467 28.14060059 2.45935059 29.49487305 2.43237305 C33.17656234 1.97822025 34.9553626 1.01415481 38 -1 C40.77570783 -1.39734059 43.34158352 -1.64980814 46.125 -1.75 C46.87402588 -1.78383789 47.62305176 -1.81767578 48.39477539 -1.85253906 C61.13169161 -2.32858319 61.13169161 -2.32858319 66 -1 C66.66 -0.01 67.32 0.98 68 2 C71.05467518 2.46814052 71.05467518 2.46814052 74.65234375 2.3984375 C75.30828018 2.40130768 75.96421661 2.40417786 76.64002991 2.40713501 C78.02785098 2.40917703 79.41570074 2.40363738 80.8034668 2.39111328 C82.92627555 2.37508475 85.04717317 2.3909414 87.16992188 2.41015625 C88.51823337 2.40817334 89.86654367 2.40432866 91.21484375 2.3984375 C92.44323975 2.39505371 93.67163574 2.39166992 94.93725586 2.38818359 C98.35208133 1.9553759 98.80672528 1.43513368 101 -1 C103.10961914 -1.44824219 103.10961914 -1.44824219 105.53515625 -1.546875 C106.42783203 -1.58683594 107.32050781 -1.62679687 108.24023438 -1.66796875 C109.17158203 -1.69503906 110.10292969 -1.72210938 111.0625 -1.75 C111.96677734 -1.79253906 112.87105469 -1.83507813 113.80273438 -1.87890625 C126.71269765 -2.37721791 126.71269765 -2.37721791 132 -1 C132.66 -0.01 133.32 0.98 134 2 C136.87425146 2.46789867 136.87425146 2.46789867 140.2578125 2.3984375 C141.52367187 2.40230469 142.78953125 2.40617187 144.09375 2.41015625 C144.75632812 2.40387207 145.41890625 2.39758789 146.1015625 2.39111328 C148.09630102 2.37522854 150.0912143 2.39245161 152.0859375 2.41015625 C159.19016391 2.38858471 164.52157861 1.87765871 171 -1 C179.1793515 -2.49883404 190.86130445 -3.75913036 198 1 C198 1.66 198 2.32 198 3 C202.39675988 2.88202982 206.79328399 2.75780274 211.18969727 2.62768555 C212.68639269 2.58428187 214.18313939 2.54261087 215.67993164 2.50268555 C217.82714312 2.44511384 219.97409521 2.38138284 222.12109375 2.31640625 C223.4145874 2.27974854 224.70808105 2.24309082 226.04077148 2.20532227 C228.88555008 2.3332722 228.88555008 2.3332722 230 1 C251.98605732 -4.00697134 251.98605732 -4.00697134 262 1 C262 1.66 262 2.32 262 3 C272.89 3 283.78 3 295 3 C295 2.34 295 1.68 295 1 C305.89 1 316.78 1 328 1 C328 1.66 328 2.32 328 3 C338.56 3 349.12 3 360 3 C360 2.34 360 1.68 360 1 C364.53897705 0.97534608 369.07791543 0.95716211 373.61694336 0.94506836 C375.16219766 0.9400286 376.70744716 0.9331968 378.25268555 0.92456055 C380.46925029 0.91247924 382.68575218 0.90676827 384.90234375 0.90234375 C385.5971434 0.89718246 386.29194305 0.89202118 387.00779724 0.88670349 C388.6722933 0.88650723 390.33665499 0.93810871 392 1 C392.33 1.33 392.66 1.66 393 2 C395.44608998 2.15980437 397.86731058 2.25929447 400.31640625 2.31640625 C401.04746078 2.33718735 401.77851532 2.35796844 402.53172302 2.37937927 C404.87521656 2.44495024 407.21882539 2.50379432 409.5625 2.5625 C411.14779855 2.60567808 412.73308529 2.64929213 414.31835938 2.69335938 C418.21212037 2.8006392 422.10599772 2.9018849 426 3 C426 2.34 426 1.68 426 1 C436.56 1 447.12 1 458 1 C458 1.66 458 2.32 458 3 C469.22 3 480.44 3 492 3 C492 2.34 492 1.68 492 1 C502.56 1 513.12 1 524 1 C524 1.66 524 2.32 524 3 C534.89 3 545.78 3 557 3 C557 2.34 557 1.68 557 1 C567.56 1 578.12 1 589 1 C589 1.66 589 2.32 589 3 C599.89 3 610.78 3 622 3 C622 2.34 622 1.68 622 1 C626.53897705 0.97534608 631.07791543 0.95716211 635.61694336 0.94506836 C637.16219766 0.9400286 638.70744716 0.9331968 640.25268555 0.92456055 C642.46925029 0.91247924 644.68575218 0.90676827 646.90234375 0.90234375 C647.5971434 0.89718246 648.29194305 0.89202118 649.00779724 0.88670349 C650.6722933 0.88650723 652.33665499 0.93810871 654 1 C654.33 1.33 654.66 1.66 655 2 C658.18384864 2.53503781 661.41111139 2.76824967 664.625 3.0625 C665.6039624 3.154104 666.5829248 3.24570801 667.59155273 3.34008789 C674.77316175 3.95203023 681.85984806 4.05262313 689.0625 3.9375 C709.53499104 3.70351891 709.53499104 3.70351891 717 10.1875 C720.43901795 13.14033662 722.45924589 13.20159702 726.9375 12.875 C733.17414954 12.55367379 737.51776736 14.02444146 743.0625 16.625 C743.78880615 16.95612793 744.5151123 17.28725586 745.26342773 17.62841797 C750.09488166 20.02914745 752.00901351 22.45058367 755 27 C757.41086419 28.48382288 759.57219259 29.67294783 762.125 30.8125 C762.75792969 31.11091797 763.39085937 31.40933594 764.04296875 31.71679688 C765.68920676 32.49098312 767.34408075 33.2467435 769 34 C769.66 34.33 770.32 34.66 771 35 C771 35.66 771 36.32 771 37 C771.54398438 37.0928125 772.08796875 37.185625 772.6484375 37.28125 C781.09486443 39.86288215 788.49009788 47.03875685 794.74609375 53.01953125 C796.92631557 55.05583588 796.92631557 55.05583588 799.4375 56.45703125 C802.49066429 58.29544572 804.93453459 60.46999132 807.5625 62.875 C808.95662109 64.13957031 808.95662109 64.13957031 810.37890625 65.4296875 C813 68 813 68 814.96484375 70.5078125 C816.9369975 72.92284915 819.06773578 74.71713252 821.48779297 76.66503906 C824.0604305 78.93613723 826.03051556 81.62435255 828.0625 84.375 C828.49296631 84.94863281 828.92343262 85.52226562 829.36694336 86.11328125 C830.58317397 87.73829984 831.79183435 89.36897637 833 91 C833.5671875 91.73476562 834.134375 92.46953125 834.71875 93.2265625 C837.21584562 96.52214799 838.20089286 99.00446432 839 103 C840.84971696 104.05021103 840.84971696 104.05021103 843 105 C843.9590625 106.2065625 843.9590625 106.2065625 844.9375 107.4375 C847.0891865 110.11080746 849.04904363 111.32513287 852 113 C853 115 853 115 852.625 118.75 C852.50691357 124.82161072 855.45124191 129.4939435 858.2734375 134.66796875 C859.873972 137.75678306 860.94094664 140.69771969 862 144 C862.77749183 145.68328265 863.58932145 147.35120432 864.4375 149 C864.84871094 149.804375 865.25992187 150.60875 865.68359375 151.4375 C866.61793485 153.25627674 867.58797823 155.05690902 868.58203125 156.84375 C870.1992646 160.44354213 870.75723549 163.58967516 871.25 167.5 C871.50523437 169.40265625 871.50523437 169.40265625 871.765625 171.34375 C871.98697513 174.79681196 871.7277026 177.63177654 871 181 C871.66 181 872.32 181 873 181 C873.06058594 181.71027344 873.12117188 182.42054688 873.18359375 183.15234375 C873.26738281 184.07144531 873.35117188 184.99054688 873.4375 185.9375 C873.51871094 186.85402344 873.59992188 187.77054688 873.68359375 188.71484375 C873.76044976 190.96159732 873.76044976 190.96159732 875 192 C874.9906586 194.75104356 874.866933 197.49021134 874.7421875 200.23828125 C874.97619765 203.65270212 875.59472606 206.29442073 876.5234375 209.5625 C878.32089622 216.38976422 878.17149522 222.68511249 877.75 229.6875 C877.69714844 230.86505859 877.64429688 232.04261719 877.58984375 233.25585938 C877.16354008 241.83645992 877.16354008 241.83645992 876 243 C875.84111908 245.28988781 875.74861927 247.58443441 875.68359375 249.87890625 C875.6524221 250.90889992 875.6524221 250.90889992 875.62062073 251.95970154 C875.55505857 254.16052935 875.49620985 256.36147975 875.4375 258.5625 C875.39432108 260.05144514 875.350707 261.54037773 875.30664062 263.02929688 C875.1993707 266.68606553 875.09812228 270.34297318 875 274 C876.19749878 274.19251343 876.19749878 274.19251343 877.41918945 274.38891602 C880 275 880 275 881.29296875 276.77734375 C881.73576172 277.84662109 881.73576172 277.84662109 882.1875 278.9375 C883.30419707 281.55579824 883.95357649 282.95357649 886 285 C886.3359375 288.1171875 886.3359375 288.1171875 886.375 291.875 C886.40335938 293.10992187 886.43171875 294.34484375 886.4609375 295.6171875 C885.9233292 299.56268573 884.96748895 300.4938673 882 303 C881.690625 303.86625 881.38125 304.7325 881.0625 305.625 C880 308 880 308 875 310 C875.33 317.59 875.66 325.18 876 333 C876.33 333 876.66 333 877 333 C877 334.98 877 336.96 877 339 C878.32 339.66 879.64 340.32 881 341 C881 351.23 881 361.46 881 372 C879.68 372.66 878.36 373.32 877 374 C877 374.66 877 375.32 877 376 C876.34 376 875.68 376 875 376 C875.33 385.24 875.66 394.48 876 404 C877.32 404.33 878.64 404.66 880 405 C882.52284518 412.90491489 883.69060408 419.73338466 881.53125 427.859375 C880.87912061 430.2638626 880.87912061 430.2638626 880.625 433.875 C880.41875 434.90625 880.2125 435.9375 880 437 C879.33967773 437.41805908 878.67935547 437.83611816 877.99902344 438.2668457 C875.68090915 439.90881891 875.68090915 439.90881891 875.45410156 443.09448242 C875.42268066 444.95617065 875.42268066 444.95617065 875.390625 446.85546875 C875.37408875 447.51710526 875.35755249 448.17874176 875.34051514 448.86042786 C875.29200712 450.96954601 875.27066073 453.07794323 875.25 455.1875 C875.22184223 456.61917695 875.19191505 458.05082028 875.16015625 459.48242188 C875.08625107 462.98812393 875.03669212 466.49368875 875 470 C876.65 470.33 878.3 470.66 880 471 C880.18175781 471.61488281 880.36351562 472.22976563 880.55078125 472.86328125 C880.80214844 473.67152344 881.05351563 474.47976563 881.3125 475.3125 C881.67794922 476.51326172 881.67794922 476.51326172 882.05078125 477.73828125 C882.83329353 480.05280543 882.83329353 480.05280543 884.578125 481.421875 C886.71938786 483.79844147 886.43362169 485.79994833 886.4375 488.9375 C886.45683594 489.97777344 886.47617188 491.01804687 886.49609375 492.08984375 C885.88890574 495.6516947 884.66407232 496.66255724 882 499 C881.649375 499.886875 881.29875 500.77375 880.9375 501.6875 C880.4734375 502.8321875 880.4734375 502.8321875 880 504 C879.01 504.33 878.02 504.66 877 505 C877 506.98 877 508.96 877 511 C876.67 511 876.34 511 876 511 C876 516.28 876 521.56 876 527 C876.33 527 876.66 527 877 527 C877.12375 528.6396875 877.12375 528.6396875 877.25 530.3125 C878.12858242 534.63219689 878.63151003 534.59393573 882 537 C886.85395968 544.01127509 887.09364467 551.6942121 886 560 C884.56640625 561.75390625 884.56640625 561.75390625 883 563 C882.505 564.03125 882.01 565.0625 881.5 566.125 C880 569 880 569 877 570 C877 572.64 877 575.28 877 578 C876.67 578 876.34 578 876 578 C876 585.59 876 593.18 876 601 C877.65 601.33 879.3 601.66 881 602 C881.268125 603.093125 881.53625 604.18625 881.8125 605.3125 C882.6061419 608.90827912 882.6061419 608.90827912 884.5546875 610.2890625 C886.85080915 613.00717407 886.35918043 615.59019388 886.3125 619.0625 C886.30863281 620.31160156 886.30476563 621.56070313 886.30078125 622.84765625 C886 626 886 626 884 628 C883.67 628.99 883.34 629.98 883 631 C882 634 882 634 880 636 C879.01 636 878.02 636 877 636 C875.46733418 639.06533164 875.89723529 642.26754272 875.9375 645.625 C875.94201172 646.33140625 875.94652344 647.0378125 875.95117188 647.765625 C875.96296125 649.51045275 875.98089676 651.255237 876 653 C876.33 653 876.66 653 877 653 C877 656.96 877 660.92 877 665 C878.32 665.66 879.64 666.32 881 667 C885.91444248 672.36856081 886.72088485 677.6473313 886.4375 684.6875 C886.43169922 685.51572266 886.42589844 686.34394531 886.41992188 687.19726562 C886.33417388 691.48123529 886.16341613 695.19034803 884 699 C881 701 881 701 875 700 C875.33 710.23 875.66 720.46 876 731 C877.32 731.33 878.64 731.66 880 732 C880.90440828 738.78306208 881.19443077 745.53928326 881.3125 752.375 C881.34214844 753.25510742 881.37179687 754.13521484 881.40234375 755.04199219 C881.46062077 761.36747745 881.46062077 761.36747745 879.10546875 764.6015625 C877 766 877 766 875 766 C875.33 775.57 875.66 785.14 876 795 C877.32 795.66 878.64 796.32 880 797 C881.12536963 799.7956434 881.1284463 802.52961754 881.1328125 805.51953125 C881.13410156 806.37740234 881.13539062 807.23527344 881.13671875 808.11914062 C881.13285156 809.00794922 881.12898438 809.89675781 881.125 810.8125 C881.13080078 812.12831055 881.13080078 812.12831055 881.13671875 813.47070312 C881.11665496 826.88334504 881.11665496 826.88334504 878 830 C877.60235737 831.98821313 877.26224651 833.98944339 877 836 C876.67 836 876.34 836 876 836 C875.91183095 839.64567713 875.85922052 843.29107474 875.8125 846.9375 C875.78736328 847.95908203 875.76222656 848.98066406 875.73632812 850.03320312 C875.67409031 856.52668195 876.28957035 862.04343016 879 868 C879.33 868.33 879.66 868.66 880 869 C880.12663091 871.82416382 880.18520548 874.61294793 880.1875 877.4375 C880.19974609 878.22705078 880.21199219 879.01660156 880.22460938 879.83007812 C880.22987279 881.88807435 880.12206285 883.94562009 880 886 C879.34 886.66 878.68 887.32 878 888 C877.63239269 890.32817964 877.29758419 892.6618385 877 895 C876.67 895.33 876.34 895.66 876 896 C875.71461873 900.47227037 875.76802018 904.95723396 875.75 909.4375 C875.729375 910.68466797 875.70875 911.93183594 875.6875 913.21679688 C875.65941795 919.8968154 876.13523347 925.46939235 878.32324219 931.78100586 C880.09659181 937.59557106 879.24687785 943.99469627 879 950 C878.9690625 950.97582031 878.938125 951.95164062 878.90625 952.95703125 C878.75 955.375 878.75 955.375 878 959 C875.953125 960.2265625 875.953125 960.2265625 874 961 C874 962.65 874 964.3 874 966 C873.34 966 872.68 966 872 966 C871.94392578 966.87398437 871.94392578 966.87398437 871.88671875 967.765625 C871.40407831 973.78443518 870.22939204 979.35894806 868.69140625 985.19140625 C867.80264543 988.80168325 867.41071703 992.30354671 867 996 C865.9117038 1004.3130095 863.96921411 1012.55498237 860 1020 C857.8984375 1021.18359375 857.8984375 1021.18359375 856 1022 C855.67 1022.99 855.34 1023.98 855 1025 C854.34 1025 853.68 1025 853 1025 C851.95785309 1029.61507774 851.95785309 1029.61507774 853 1034 C853.1251687 1036.94874168 853.18517983 1039.86356546 853.1875 1042.8125 C853.19974609 1043.62009766 853.21199219 1044.42769531 853.22460938 1045.25976562 C853.235272 1049.59945226 853.12121789 1053.09249336 851 1057 C849 1059 849 1059 845.3046875 1059.1953125 C843.82799892 1059.182009 842.35137642 1059.15814835 840.875 1059.125 C840.12089844 1059.11597656 839.36679688 1059.10695313 838.58984375 1059.09765625 C836.72642746 1059.0740687 834.86317407 1059.03819719 833 1059 C833 1059.99 833 1060.98 833 1062 C831.35570171 1063.68873879 829.68615782 1065.35305515 828 1067 C827.505 1067.845625 827.01 1068.69125 826.5 1069.5625 C825 1072 825 1072 822.3125 1073.6875 C819.7709946 1075.72811521 819.7709946 1075.72811521 819.8203125 1078.296875 C819.85898438 1079.16828125 819.89765625 1080.0396875 819.9375 1080.9375 C820.08464489 1084.37764598 820.06916569 1085.84594913 818.625 1089.0625 C814.25093078 1092.29097966 809.28645245 1092 804 1092 C802.81324718 1093.1528456 801.63261229 1094.31284735 800.48828125 1095.5078125 C798.89586573 1097.10440759 797.22559183 1098.5488487 795.5 1100 C794.9121875 1100.50402344 794.324375 1101.00804687 793.71875 1101.52734375 C792.14714267 1102.87392548 790.57366712 1104.218326 789 1105.5625 C788.34 1106.366875 787.68 1107.17125 787 1108 C787.35232207 1110.42938689 787.35232207 1110.42938689 788 1113 C785.39449541 1120.5559633 785.39449541 1120.5559633 782 1123 C779.03380069 1123.91342155 776.24970461 1124.16880424 773.15625 1124.28125 C772.23972656 1124.31863281 771.32320312 1124.35601563 770.37890625 1124.39453125 C768.45963542 1124.46484375 766.54036458 1124.53515625 764.62109375 1124.60546875 C763.70457031 1124.64285156 762.78804687 1124.68023438 761.84375 1124.71875 C761.01037109 1124.74904297 760.17699219 1124.77933594 759.31835938 1124.81054688 C757.10717108 1124.99124213 755.1300535 1125.39456477 753 1126 C753 1127.65 753 1129.3 753 1131 C745.44402354 1135.04741687 737.88488968 1138.60800886 729.8125 1141.5 C729.08232666 1141.76699707 728.35215332 1142.03399414 727.59985352 1142.30908203 C722.37184042 1144.12394681 722.37184042 1144.12394681 719 1143 C719 1142.34 719 1141.68 719 1141 C715.7906799 1141.78770129 712.58273572 1142.58087349 709.375 1143.375 C708.47136719 1143.59671875 707.56773437 1143.8184375 706.63671875 1144.046875 C701.13567342 1145.41209793 695.77117796 1146.89152881 690.5 1149 C687.70035542 1150.11985783 684.86056423 1151.04647859 682 1152 C676.91905355 1153.80812407 676.91905355 1153.80812407 672 1156 C665.26716303 1156.58060949 659.96251749 1156.24049864 654 1153 C653.67 1152.67 653.34 1152.34 653 1152 C642.95837131 1151.05415346 632.44567795 1151.1054135 622.75 1154 C616.8648448 1155.70742157 611.62870188 1156.38507596 605.5 1156.375 C604.77006836 1156.37628906 604.04013672 1156.37757812 603.28808594 1156.37890625 C599.65698003 1156.30571859 596.37994625 1155.92571472 592.8671875 1154.98828125 C581.35274827 1152.04570233 564.09047866 1152.87825583 552.4375 1156.0625 C548.10390323 1157.20836157 543.83103672 1157.22295922 539.375 1157.25 C538.65755615 1157.259104 537.9401123 1157.26820801 537.20092773 1157.27758789 C532.46348443 1157.25079178 528.56562712 1156.36396158 524 1155 C513.81997199 1153.81027236 502.43671673 1152.58313108 492.375 1155 C487.62488082 1156.07088033 483.03557279 1156.22564293 478.1875 1156.25 C477.12184814 1156.26353516 477.12184814 1156.26353516 476.03466797 1156.27734375 C471.75281488 1156.25431788 467.76390981 1155.79454853 463.55712891 1155 C453.82614307 1153.47644441 444.05705381 1153.71190305 434.23046875 1153.734375 C432.13828995 1153.733025 430.04611145 1153.73108169 427.95393372 1153.72857666 C423.59271221 1153.7256444 419.23157318 1153.72986374 414.87036133 1153.73925781 C409.29446747 1153.75068675 403.71876547 1153.74405905 398.14287853 1153.73211288 C393.83194034 1153.72487311 389.52104739 1153.72719134 385.2101078 1153.73236847 C383.15410654 1153.73369726 381.0981011 1153.73208439 379.04210472 1153.72740936 C376.16882863 1153.72230528 373.29586068 1153.73010719 370.42260742 1153.74121094 C369.58347305 1153.73716248 368.74433868 1153.73311401 367.879776 1153.72894287 C362.59307682 1153.7666094 358.0924778 1154.577723 353 1156 C350.390625 1156.23046875 350.390625 1156.23046875 348.25 1156.1875 C347.53328125 1156.18105469 346.8165625 1156.17460938 346.078125 1156.16796875 C344 1156 344 1156 342.11373329 1155.50898552 C338.59916895 1154.66268085 335.00265321 1154.61967525 331.40380859 1154.44580078 C330.14087258 1154.38263515 330.14087258 1154.38263515 328.85242271 1154.31819344 C320.08038107 1153.90999222 311.31894458 1153.85446826 302.5390625 1153.8671875 C300.84858181 1153.86651065 299.15810121 1153.86553749 297.46762085 1153.86428833 C293.96359306 1153.86283166 290.45959114 1153.864901 286.95556641 1153.86962891 C282.50138629 1153.87535171 278.04726613 1153.87201811 273.59308815 1153.86605644 C270.11664388 1153.86241807 266.64021349 1153.86360392 263.16376877 1153.86618423 C261.52219002 1153.86684309 259.88060993 1153.86606231 258.23903275 1153.86370468 C241.97008318 1153.54284701 241.97008318 1153.54284701 226 1156 C222.96099311 1156.2164483 219.92100481 1156.18512772 216.875 1156.1875 C216.070625 1156.19974609 215.26625 1156.21199219 214.4375 1156.22460938 C210.25794259 1156.23462429 206.46367088 1155.95920668 202.390625 1155.00390625 C195.97674622 1153.60036185 189.54333318 1153.70021806 183.01318359 1153.73925781 C180.87178469 1153.75001615 178.73121791 1153.73928838 176.58984375 1153.7265625 C168.55119652 1153.62334093 168.55119652 1153.62334093 160.67578125 1155 C155.83254088 1156.31760843 151.3066342 1156.29835679 146.3125 1156.25 C145.3335376 1156.24613281 144.3545752 1156.24226563 143.34594727 1156.23828125 C137.23315349 1156.16537126 131.48264031 1155.5609469 125.46875 1154.453125 C114.35734271 1153.00163486 102.78895663 1153.37343176 91.81640625 1155.54296875 C81.70689873 1157.18348523 70.30385764 1156.65192882 61 1152 C56.5046782 1151.75577826 52.00120764 1151.81479888 47.5 1151.8125 C45.60701172 1151.79413086 45.60701172 1151.79413086 43.67578125 1151.77539062 C41.87173828 1151.77249023 41.87173828 1151.77249023 40.03125 1151.76953125 C38.92330078 1151.76542236 37.81535156 1151.76131348 36.67382812 1151.75708008 C33.84694043 1151.72624045 33.84694043 1151.72624045 32 1154 C29.53740008 1154.19959902 27.18975908 1154.27989206 24.7265625 1154.265625 C24.00640961 1154.26753845 23.28625671 1154.2694519 22.54428101 1154.27142334 C21.01942598 1154.2727852 19.49455936 1154.26908864 17.96972656 1154.26074219 C15.64100888 1154.25007334 13.31306812 1154.26062081 10.984375 1154.2734375 C9.50260247 1154.27211529 8.02083042 1154.26955164 6.5390625 1154.265625 C5.84414703 1154.26967346 5.14923157 1154.27372192 4.43325806 1154.27789307 C0.67408689 1154.241652 -1.717378 1153.73626288 -5 1152 C-7.77201418 1151.69368448 -7.77201418 1151.69368448 -10.7890625 1151.734375 C-11.89507812 1151.73179688 -13.00109375 1151.72921875 -14.140625 1151.7265625 C-15.29046875 1151.73429687 -16.4403125 1151.74203125 -17.625 1151.75 C-18.78257812 1151.74226563 -19.94015625 1151.73453125 -21.1328125 1151.7265625 C-22.23625 1151.72914062 -23.3396875 1151.73171875 -24.4765625 1151.734375 C-25.48799316 1151.73663086 -26.49942383 1151.73888672 -27.54150391 1151.74121094 C-30.17747706 1151.75801157 -30.17747706 1151.75801157 -32 1154 C-34.42675781 1154.25878906 -34.42675781 1154.25878906 -37.453125 1154.265625 C-38.54753906 1154.26820312 -39.64195312 1154.27078125 -40.76953125 1154.2734375 C-41.91808594 1154.26570313 -43.06664062 1154.25796875 -44.25 1154.25 C-45.38308594 1154.25773437 -46.51617187 1154.26546875 -47.68359375 1154.2734375 C-48.78316406 1154.27085938 -49.88273438 1154.26828125 -51.015625 1154.265625 C-52.01883789 1154.26336914 -53.02205078 1154.26111328 -54.05566406 1154.25878906 C-57.43456696 1153.96180423 -61.49779923 1153.50220077 -64 1151 C-65.75463429 1150.71309993 -67.51888126 1150.48453744 -69.28515625 1150.28125 C-70.37376953 1150.15363281 -71.46238281 1150.02601562 -72.58398438 1149.89453125 C-73.73189453 1149.76433594 -74.87980469 1149.63414063 -76.0625 1149.5 C-78.30339898 1149.23970006 -80.54428469 1148.97928586 -82.78515625 1148.71875 C-83.85523926 1148.59757812 -84.92532227 1148.47640625 -86.02783203 1148.3515625 C-88.54580408 1148.05372451 -91.04954091 1147.70675695 -93.55859375 1147.34375 C-96.79460062 1146.81732638 -96.79460062 1146.81732638 -99.05078125 1147.54296875 C-107.63396051 1149.55545767 -120.84243423 1142.44379955 -128.13671875 1138.15625 C-132.55124095 1135.61687105 -137.16222867 1133.56600379 -141.8125 1131.5 C-143.07030273 1130.93345703 -143.07030273 1130.93345703 -144.35351562 1130.35546875 C-148.61819385 1128.44767265 -152.88407037 1126.66395466 -157.26171875 1125.03125 C-161.68548918 1123.28797536 -164.49975575 1121.19695604 -168 1118 C-169.98231606 1116.57916442 -171.9830455 1115.18372034 -174 1113.8125 C-175.13992648 1113.03213093 -176.27922693 1112.25084676 -177.41796875 1111.46875 C-178.00368652 1111.0665625 -178.5894043 1110.664375 -179.19287109 1110.25 C-204.34343809 1092.85322845 -204.34343809 1092.85322845 -207.37890625 1087.625 C-209.23966358 1084.61191825 -211.38842302 1082.45324702 -213.9375 1080 C-217.23185873 1076.81992521 -220.17435513 1073.60119421 -223 1070 C-223.804375 1069.195625 -224.60875 1068.39125 -225.4375 1067.5625 C-229.88820469 1063.11179531 -233.02522521 1059.23118081 -235.703125 1053.53515625 C-237.46775992 1050.08561389 -239.48476093 1046.80770451 -241.5 1043.5 C-250 1029.49045298 -250 1029.49045298 -250 1026 C-250.70125 1025.95875 -251.4025 1025.9175 -252.125 1025.875 C-256.10619704 1024.66333134 -258.45280343 1022.24042095 -261 1019 C-262.01139576 1015.96581272 -262.02417743 1013.61809506 -261.93457031 1010.45336914 C-261.71938256 1002.71983881 -262.22464716 997.08814688 -265.984375 990.1953125 C-268.69474199 984.83712545 -269.83451117 979.50498568 -270.8125 973.625 C-270.94849609 972.84664795 -271.08449219 972.0682959 -271.22460938 971.26635742 C-271.88015032 966.9520562 -272.002883 963.07585304 -271.51953125 958.734375 C-270.80425115 952.28497988 -271.30642386 946.07132423 -271.875 939.625 C-271.96652344 938.47644531 -272.05804688 937.32789063 -272.15234375 936.14453125 C-272.58802462 930.31280327 -272.58802462 930.31280327 -273.52954102 924.55151367 C-274.1005325 921.45476639 -274.11203378 918.53539739 -274.09765625 915.38671875 C-274.09443359 914.13955078 -274.09121094 912.89238281 -274.08789062 911.60742188 C-274.07532227 909.66706055 -274.07532227 909.66706055 -274.0625 907.6875 C-274.05798828 906.37458984 -274.05347656 905.06167969 -274.04882812 903.70898438 C-274.03705949 900.4726099 -274.0206176 897.23632822 -274 894 C-273.34 894 -272.68 894 -272 894 C-272 883.11 -272 872.22 -272 861 C-272.66 861 -273.32 861 -274 861 C-274.02465504 856.60343827 -274.04283842 852.2069128 -274.05493164 847.81030273 C-274.05997121 846.31355082 -274.06680287 844.81680384 -274.07543945 843.32006836 C-274.08752159 841.17300193 -274.09323191 839.02600038 -274.09765625 836.87890625 C-274.10289307 835.5854126 -274.10812988 834.29191895 -274.11352539 832.95922852 C-274 830 -274 830 -273 829 C-272.84019563 826.55391002 -272.74070553 824.13268942 -272.68359375 821.68359375 C-272.66281265 820.95253922 -272.64203156 820.22148468 -272.62062073 819.46827698 C-272.55504976 817.12478344 -272.49620568 814.78117461 -272.4375 812.4375 C-272.39432192 810.85220145 -272.35070787 809.26691471 -272.30664062 807.68164062 C-272.1993608 803.78787963 -272.0981151 799.89400228 -272 796 C-272.66 796 -273.32 796 -274 796 C-274 785.44 -274 774.88 -274 764 C-273.34 764 -272.68 764 -272 764 C-272 753.11 -272 742.22 -272 731 C-272.66 731 -273.32 731 -274 731 C-274.02465504 726.60343827 -274.04283842 722.2069128 -274.05493164 717.81030273 C-274.05997121 716.31355082 -274.06680287 714.81680384 -274.07543945 713.32006836 C-274.08752159 711.17300193 -274.09323191 709.02600038 -274.09765625 706.87890625 C-274.10289307 705.5854126 -274.10812988 704.29191895 -274.11352539 702.95922852 C-274 700 -274 700 -273 699 C-272.84019563 696.55391002 -272.74070553 694.13268942 -272.68359375 691.68359375 C-272.66281265 690.95253922 -272.64203156 690.22148468 -272.62062073 689.46827698 C-272.55504976 687.12478344 -272.49620568 684.78117461 -272.4375 682.4375 C-272.39432192 680.85220145 -272.35070787 679.26691471 -272.30664062 677.68164062 C-272.1993608 673.78787963 -272.0981151 669.89400228 -272 666 C-272.66 666 -273.32 666 -274 666 C-274 655.44 -274 644.88 -274 634 C-273.34 634 -272.68 634 -272 634 C-272.11795925 629.31842099 -272.24218549 624.63706712 -272.37231445 619.95581055 C-272.41572146 618.362107 -272.45739219 616.7683552 -272.49731445 615.17456055 C-272.55487807 612.88836092 -272.61861149 610.60240551 -272.68359375 608.31640625 C-272.70030624 607.59973282 -272.71701874 606.88305939 -272.73423767 606.14466858 C-272.55018654 602.78472618 -272.55018654 602.78472618 -274 600 C-274.08790975 597.70848583 -274.10694038 595.41427476 -274.09765625 593.12109375 C-274.0962413 592.4344313 -274.09482635 591.74776886 -274.09336853 591.04029846 C-274.08775479 588.83932199 -274.07520007 586.63844591 -274.0625 584.4375 C-274.05748676 582.94856917 -274.05292355 581.45963676 -274.04882812 579.97070312 C-274.03778093 576.31376925 -274.02050713 572.65689442 -274 569 C-273.34 569 -272.68 569 -272 569 C-272 558.11 -272 547.22 -272 536 C-272.66 536 -273.32 536 -274 536 C-274.02465392 531.46102295 -274.04283789 526.92208457 -274.05493164 522.38305664 C-274.0599714 520.83780234 -274.0668032 519.29255284 -274.07543945 517.74731445 C-274.08752076 515.53074971 -274.09323173 513.31424782 -274.09765625 511.09765625 C-274.10281754 510.4028566 -274.10797882 509.70805695 -274.11329651 508.99220276 C-274.11349277 507.3277067 -274.06189129 505.66334501 -274 504 C-273.67 503.67 -273.34 503.34 -273 503 C-272.84019563 500.55391002 -272.74070553 498.13268942 -272.68359375 495.68359375 C-272.66281265 494.95253922 -272.64203156 494.22148468 -272.62062073 493.46827698 C-272.55504976 491.12478344 -272.49620568 488.78117461 -272.4375 486.4375 C-272.39432192 484.85220145 -272.35070787 483.26691471 -272.30664062 481.68164062 C-272.1993608 477.78787963 -272.0981151 473.89400228 -272 470 C-272.66 470 -273.32 470 -274 470 C-274 459.44 -274 448.88 -274 438 C-273.34 438 -272.68 438 -272 438 C-272 427.11 -272 416.22 -272 405 C-272.66 405 -273.32 405 -274 405 C-274.02911003 401.10418244 -274.04683587 397.208393 -274.0625 393.3125 C-274.07087891 392.20970703 -274.07925781 391.10691406 -274.08789062 389.97070312 C-274.09111328 388.90400391 -274.09433594 387.83730469 -274.09765625 386.73828125 C-274.10289307 385.75899658 -274.10812988 384.77971191 -274.11352539 383.77075195 C-274 381 -274 381 -273.43139648 378.32885742 C-272.77917364 375.8562589 -272.77917364 375.8562589 -274 373 C-273.34 373 -272.68 373 -272 373 C-272.11795925 368.31842099 -272.24218549 363.63706712 -272.37231445 358.95581055 C-272.41572146 357.362107 -272.45739219 355.7683552 -272.49731445 354.17456055 C-272.55487807 351.88836092 -272.61861149 349.60240551 -272.68359375 347.31640625 C-272.70030624 346.59973282 -272.71701874 345.88305939 -272.73423767 345.14466858 C-272.55018654 341.78472618 -272.55018654 341.78472618 -274 339 C-274.08790975 336.70848583 -274.10694038 334.41427476 -274.09765625 332.12109375 C-274.0962413 331.4344313 -274.09482635 330.74776886 -274.09336853 330.04029846 C-274.08775479 327.83932199 -274.07520007 325.63844591 -274.0625 323.4375 C-274.05748676 321.94856917 -274.05292355 320.45963676 -274.04882812 318.97070312 C-274.03778093 315.31376925 -274.02050713 311.65689442 -274 308 C-273.34 308 -272.68 308 -272 308 C-272.11795925 303.31842099 -272.24218549 298.63706712 -272.37231445 293.95581055 C-272.41572146 292.362107 -272.45739219 290.7683552 -272.49731445 289.17456055 C-272.55487807 286.88836092 -272.61861149 284.60240551 -272.68359375 282.31640625 C-272.70030624 281.59973282 -272.71701874 280.88305939 -272.73423767 280.14466858 C-272.55018654 276.78472618 -272.55018654 276.78472618 -274 274 C-274.08790975 271.70848583 -274.10694038 269.41427476 -274.09765625 267.12109375 C-274.0962413 266.4344313 -274.09482635 265.74776886 -274.09336853 265.04029846 C-274.08775479 262.83932199 -274.07520007 260.63844591 -274.0625 258.4375 C-274.05748676 256.94856917 -274.05292355 255.45963676 -274.04882812 253.97070312 C-274.03778093 250.31376925 -274.02050713 246.65689442 -274 243 C-273.34 243 -272.68 243 -272 243 C-271.97485944 238.43253967 -271.95693696 233.86512156 -271.94506836 229.29760742 C-271.94010888 227.75105079 -271.93333923 226.20449866 -271.92456055 224.65795898 C-271.87382043 215.47399698 -272.05951032 206.43824115 -272.90551758 197.28540039 C-273.10076064 190.49628972 -271.03781627 184.15478124 -268.3125 178 C-266.73278744 174.93498623 -266.73278744 174.93498623 -267 171 C-266.34 171 -265.68 171 -265 171 C-265.04125 169.9275 -265.0825 168.855 -265.125 167.75 C-265.00665094 164.19952819 -264.63503616 162.96350304 -263 160 C-263 158.68 -263 157.36 -263 156 C-262.34 156 -261.68 156 -261 156 C-261.33 155.01 -261.66 154.02 -262 153 C-261.34 153 -260.68 153 -260 153 C-260.33 152.01 -260.66 151.02 -261 150 C-258.56842105 143.28421053 -258.56842105 143.28421053 -256 142 C-256 140.35 -256 138.7 -256 137 C-255.34 137 -254.68 137 -254 137 C-253.86722656 136.43796875 -253.73445313 135.8759375 -253.59765625 135.296875 C-252.97562889 132.90633847 -252.22884959 130.58964225 -251.4375 128.25 C-251.16808594 127.45078125 -250.89867187 126.6515625 -250.62109375 125.828125 C-250.41613281 125.22484375 -250.21117187 124.6215625 -250 124 C-249.34 124 -248.68 124 -248 124 C-247.71125 122.948125 -247.4225 121.89625 -247.125 120.8125 C-246.22186883 117.75188881 -245.27167527 114.91737267 -244 112 C-243.608125 111.071875 -243.21625 110.14375 -242.8125 109.1875 C-241.21778305 106.38299778 -239.73029315 104.52204647 -237.5625 102.1875 C-233.25379153 97.44246662 -231.15077207 92.29887993 -229.0625 86.3125 C-227.53300967 82.98360929 -225.49773662 80.68506686 -223 78 C-222.34 78 -221.68 78 -221 78 C-220.73445313 77.41863281 -220.46890625 76.83726563 -220.1953125 76.23828125 C-216.91411669 70.09408125 -211.43387646 65.29497131 -206.1640625 60.859375 C-204.60074427 59.51616295 -203.0791562 58.12385735 -201.5859375 56.703125 C-197.01173201 52.36966717 -193.07099729 49.22412003 -187.1953125 46.94140625 C-184.84270695 45.93254871 -182.91615738 44.7054825 -180.8125 43.25 C-166.39319652 33.32113705 -150.40162837 25.40294187 -134.01171875 19.32421875 C-131.05080517 18.26137865 -131.05080517 18.26137865 -129.5703125 16.453125 C-126.96759381 14.04463905 -123.56641197 13.7568327 -120.1875 13.0625 C-118.65049559 12.72251141 -117.11404218 12.38002318 -115.578125 12.03515625 C-114.42473633 11.77822998 -114.42473633 11.77822998 -113.24804688 11.51611328 C-104.6922863 9.55185635 -96.77411123 7.09907683 -89 3 C-85.33721782 2.03305885 -82.0953183 1.94832755 -78.32421875 2.15625 C-76.71063477 2.23552734 -76.71063477 2.23552734 -75.06445312 2.31640625 C-72.82483517 2.43816686 -70.58525129 2.56055604 -68.34570312 2.68359375 C-61.57292461 3.0425097 -61.57292461 3.0425097 -54.83203125 2.50390625 C-50.13496938 1.8862498 -45.71221385 2.12262857 -41 2.4375 C-40.12988281 2.48970703 -39.25976562 2.54191406 -38.36328125 2.59570312 C-36.24178191 2.72392561 -34.12082275 2.8610348 -32 3 C-32 2.34 -32 1.68 -32 1 C-21.51748164 -2.27578699 -10.55468997 -3.58105553 0 0 Z " fill="#FDFDFD" transform="translate(325,50)"/>
<path d="M0 0 C92.73 0 185.46 0 281 0 C281 11.55 281 23.1 281 35 C292.22 35 303.44 35 315 35 C315 87.47 315 139.94 315 194 C257.58 194 200.16 194 141 194 C141 205.88 141 217.76 141 230 C175.32 230 209.64 230 245 230 C245 241.88 245 253.76 245 266 C198.47 266 151.94 266 104 266 C104 289.43 104 312.86 104 337 C127.76 337 151.52 337 176 337 C176.0309375 354.7890625 176.0309375 354.7890625 176.0625 372.9375 C176.071604 376.68730225 176.08070801 380.43710449 176.09008789 384.30053711 C176.09460449 388.86633301 176.09460449 388.86633301 176.09544373 391.00123596 C176.09698308 392.4978617 176.10050784 393.99448617 176.10557556 395.49110413 C176.11285459 397.75312467 176.11390737 400.01506918 176.11352539 402.27709961 C176.115746 403.55395126 176.11796661 404.83080292 176.12025452 406.14634705 C176 409 176 409 175 410 C172.49075847 410.10087212 170.00963616 410.13972032 167.5 410.1328125 C166.74912109 410.13376923 165.99824219 410.13472595 165.22460938 410.13571167 C163.63411373 410.13639338 162.04361533 410.13453972 160.453125 410.13037109 C158.01035345 410.12502267 155.56776579 410.13031634 153.125 410.13671875 C151.58333293 410.13605797 150.04166597 410.1347768 148.5 410.1328125 C147.76458984 410.13483673 147.02917969 410.13686096 146.27148438 410.13894653 C141.11495161 410.11495161 141.11495161 410.11495161 140 409 C139.9114933 406.40665852 139.8846683 403.83937421 139.90234375 401.24609375 C139.90335083 400.55906372 139.90435791 399.87203369 139.90539551 399.16418457 C139.91064224 396.58860616 139.92460341 394.01305147 139.9375 391.4375 C139.958125 385.683125 139.97875 379.92875 140 374 C128.12 374 116.24 374 104 374 C104 414.92 104 455.84 104 498 C92.78 498 81.56 498 70 498 C70 515.49 70 532.98 70 551 C58.78 551 47.56 551 36 551 C36 562.55 36 574.1 36 586 C24.12 586 12.24 586 0 586 C0 633.85 0 681.7 0 731 C11.88 731 23.76 731 36 731 C36 743.21 36 755.42 36 768 C12.57 768 -10.86 768 -35 768 C-35 732.03 -35 696.06 -35 659 C-47.21 659 -59.42 659 -72 659 C-72 647.12 -72 635.24 -72 623 C-83.88 623 -95.76 623 -108 623 C-108 634.88 -108 646.76 -108 659 C-119.88 659 -131.76 659 -144 659 C-144 670.88 -144 682.76 -144 695 C-155.88 695 -167.76 695 -180 695 C-180 706.88 -180 718.76 -180 731 C-168.12 731 -156.24 731 -144 731 C-144 743.21 -144 755.42 -144 768 C-167.76 768 -191.52 768 -216 768 C-216 720.15 -216 672.3 -216 623 C-227.88 623 -239.76 623 -252 623 C-252 610.79 -252 598.58 -252 586 C-263.88 586 -275.76 586 -288 586 C-288 574.45 -288 562.9 -288 551 C-299.88 551 -311.76 551 -324 551 C-324 539.12 -324 527.24 -324 515 C-335.88 515 -347.76 515 -360 515 C-360 503.45 -360 491.9 -360 480 C-371.47353412 480.03960147 -371.47353412 480.03960147 -382.94702148 480.09008789 C-384.38004482 480.09300711 -385.81306898 480.09555566 -387.24609375 480.09765625 C-387.99669067 480.10277222 -388.7472876 480.10788818 -389.52062988 480.11315918 C-391.34747601 480.11346992 -393.17421683 480.06231113 -395 480 C-396.81408636 478.18591364 -396.12264895 475.68457297 -396.12908131 473.26987213 C-396.12616847 472.44012204 -396.12325563 471.61037194 -396.12025452 470.75547791 C-396.12110894 469.88074328 -396.12196337 469.00600865 -396.12284368 468.10476691 C-396.12450117 465.15047207 -396.11897273 462.19623303 -396.11352539 459.24194336 C-396.11324355 457.1334483 -396.11340119 455.02495314 -396.1139679 452.91645813 C-396.114256 447.17289034 -396.10835726 441.42934324 -396.10139394 435.68578029 C-396.09516246 429.69063212 -396.09455677 423.69548354 -396.09336853 417.70033264 C-396.0902546 406.33891904 -396.08204039 394.977515 -396.07201904 383.61610562 C-396.0608598 370.68525354 -396.05534793 357.75440102 -396.05032361 344.82354534 C-396.03985783 318.2156914 -396.02205688 291.60784664 -396 265 C-383.79 265 -371.58 265 -359 265 C-359 288.76 -359 312.52 -359 337 C-347.12 337 -335.24 337 -323 337 C-323 348.88 -323 360.76 -323 373 C-311.12 373 -299.24 373 -287 373 C-287 384.88 -287 396.76 -287 409 C-263.57 409 -240.14 409 -216 409 C-216 397.12 -216 385.24 -216 373 C-204.12 373 -192.24 373 -180 373 C-180 361.12 -180 349.24 -180 337 C-162.51 337 -145.02 337 -127 337 C-127 325.12 -127 313.24 -127 301 C-108.85 301 -90.7 301 -72 301 C-72 289.12 -72 277.24 -72 265 C-59.79 265 -47.58 265 -35 265 C-35 189.1 -35 113.2 -35 35 C-23.45 35 -11.9 35 0 35 C0 23.45 0 11.9 0 0 Z " fill="#0079E9" transform="translate(681,229)"/>
<path d="M0 0 C99 0 198 0 300 0 C300 4.95 300 9.9 300 15 C201 15 102 15 0 15 C0 10.05 0 5.1 0 0 Z " fill="#0079E9" transform="translate(750,873)"/>
<path d="M0 0 C4.78580469 -0.33389335 7.0362121 0.38970065 11 3 C12.72354659 3.75060964 14.44807983 4.49922967 16.18188477 5.22583008 C17.73668403 5.88787768 19.26953265 6.60107761 20.796875 7.32421875 C33.04017956 12.97622046 46.03345336 16.42163519 59 20 C59.83047852 20.23525391 60.66095703 20.47050781 61.51660156 20.71289062 C84.90599638 27.2242997 110.36629948 26.30610939 134.43589572 26.25693511 C138.0987556 26.25175023 141.76160029 26.25842445 145.42445785 26.26342177 C151.8113876 26.2705685 158.1982834 26.27047402 164.58521461 26.26532745 C174.08338834 26.25769502 183.58153394 26.26166453 193.07970754 26.26774407 C210.0523918 26.27822517 227.02506093 26.27738307 243.9977466 26.27158624 C258.84967847 26.26653912 273.70160482 26.26524917 288.55353737 26.26763153 C289.54178132 26.2677843 290.53002527 26.26793707 291.548216 26.26809447 C295.56059684 26.26871723 299.57297767 26.26935404 303.5853585 26.270014 C341.15947411 26.27612045 378.73358013 26.27060318 416.30769426 26.2598202 C449.63718217 26.25032806 482.9666548 26.25118145 516.29614258 26.26074219 C553.80960077 26.27146735 591.32305049 26.27568945 628.83651 26.26951766 C632.84030998 26.2688763 636.84410995 26.26825061 640.84790993 26.26763153 C641.83362731 26.26747338 642.8193447 26.26731522 643.83493231 26.26715227 C658.67393535 26.26488411 673.51293224 26.26752514 688.35193443 26.27259064 C705.23415854 26.27832515 722.11636525 26.2768454 738.99858721 26.26602915 C748.42920239 26.26018522 757.85977982 26.25973152 767.29039396 26.2673215 C773.60873786 26.27184287 779.92705182 26.2689499 786.24539132 26.26031196 C789.83232402 26.25560569 793.41918236 26.2538182 797.00611242 26.26112393 C813.44194509 26.29212719 829.68664939 25.75728301 846.05810628 24.26592728 C851.03635757 23.81592706 856.01836483 23.41054871 861 23 C860.67 23.66 860.34 24.32 860 25 C858.00390625 25.5625 858.00390625 25.5625 855.5625 26 C851.86159602 26.62251162 851.86159602 26.62251162 849 29 C847.03826393 29.56452837 845.05489574 30.05563537 843.0625 30.5 C839.39074929 31.32090174 837.15866186 31.89422543 834 34 C827.34578925 34.81588253 821.87748844 34.1942872 816 31 C815.67 30.67 815.34 30.34 815 30 C804.95837131 29.05415346 794.44567795 29.1054135 784.75 32 C778.8648448 33.70742157 773.62870188 34.38507596 767.5 34.375 C766.77006836 34.37628906 766.04013672 34.37757812 765.28808594 34.37890625 C761.65698003 34.30571859 758.37994625 33.92571472 754.8671875 32.98828125 C743.35274827 30.04570233 726.09047866 30.87825583 714.4375 34.0625 C710.10390323 35.20836157 705.83103672 35.22295922 701.375 35.25 C700.65755615 35.259104 699.9401123 35.26820801 699.20092773 35.27758789 C694.46348443 35.25079178 690.56562712 34.36396158 686 33 C675.81997199 31.81027236 664.43671673 30.58313108 654.375 33 C649.62488082 34.07088033 645.03557279 34.22564293 640.1875 34.25 C639.12184814 34.26353516 639.12184814 34.26353516 638.03466797 34.27734375 C633.75281488 34.25431788 629.76390981 33.79454853 625.55712891 33 C615.82614307 31.47644441 606.05705381 31.71190305 596.23046875 31.734375 C594.13828995 31.733025 592.04611145 31.73108169 589.95393372 31.72857666 C585.59271221 31.7256444 581.23157318 31.72986374 576.87036133 31.73925781 C571.29446747 31.75068675 565.71876547 31.74405905 560.14287853 31.73211288 C555.83194034 31.72487311 551.52104739 31.72719134 547.2101078 31.73236847 C545.15410654 31.73369726 543.0981011 31.73208439 541.04210472 31.72740936 C538.16882863 31.72230528 535.29586068 31.73010719 532.42260742 31.74121094 C531.58347305 31.73716248 530.74433868 31.73311401 529.879776 31.72894287 C524.59307682 31.7666094 520.0924778 32.577723 515 34 C512.390625 34.23046875 512.390625 34.23046875 510.25 34.1875 C509.53328125 34.18105469 508.8165625 34.17460938 508.078125 34.16796875 C506 34 506 34 504.11373329 33.50898552 C500.59916895 32.66268085 497.00265321 32.61967525 493.40380859 32.44580078 C492.56185125 32.40369036 491.71989391 32.36157993 490.85242271 32.31819344 C482.08038107 31.90999222 473.31894458 31.85446826 464.5390625 31.8671875 C462.84858181 31.86651065 461.15810121 31.86553749 459.46762085 31.86428833 C455.96359306 31.86283166 452.45959114 31.864901 448.95556641 31.86962891 C444.50138629 31.87535171 440.04726613 31.87201811 435.59308815 31.86605644 C432.11664388 31.86241807 428.64021349 31.86360392 425.16376877 31.86618423 C423.52219002 31.86684309 421.88060993 31.86606231 420.23903275 31.86370468 C403.97008318 31.54284701 403.97008318 31.54284701 388 34 C384.96099311 34.2164483 381.92100481 34.18512772 378.875 34.1875 C378.070625 34.19974609 377.26625 34.21199219 376.4375 34.22460938 C372.25794259 34.23462429 368.46367088 33.95920668 364.390625 33.00390625 C357.97674622 31.60036185 351.54333318 31.70021806 345.01318359 31.73925781 C342.87178469 31.75001615 340.73121791 31.73928838 338.58984375 31.7265625 C330.55119652 31.62334093 330.55119652 31.62334093 322.67578125 33 C317.83254088 34.31760843 313.3066342 34.29835679 308.3125 34.25 C307.3335376 34.24613281 306.3545752 34.24226563 305.34594727 34.23828125 C299.23315349 34.16537126 293.48264031 33.5609469 287.46875 32.453125 C276.35734271 31.00163486 264.78895663 31.37343176 253.81640625 33.54296875 C243.70689873 35.18348523 232.30385764 34.65192882 223 30 C218.5046782 29.75577826 214.00120764 29.81479888 209.5 29.8125 C208.23800781 29.80025391 206.97601563 29.78800781 205.67578125 29.77539062 C203.87173828 29.77249023 203.87173828 29.77249023 202.03125 29.76953125 C200.92330078 29.76542236 199.81535156 29.76131348 198.67382812 29.75708008 C195.84694043 29.72624045 195.84694043 29.72624045 194 32 C191.53740008 32.19959902 189.18975908 32.27989206 186.7265625 32.265625 C185.64633316 32.26849518 185.64633316 32.26849518 184.54428101 32.27142334 C183.01942598 32.2727852 181.49455936 32.26908864 179.96972656 32.26074219 C177.64100888 32.25007334 175.31306812 32.26062081 172.984375 32.2734375 C171.50260247 32.27211529 170.02083042 32.26955164 168.5390625 32.265625 C167.4966893 32.27169769 167.4966893 32.27169769 166.43325806 32.27789307 C162.67408689 32.241652 160.282622 31.73626288 157 30 C154.22798582 29.69368448 154.22798582 29.69368448 151.2109375 29.734375 C150.10492188 29.73179688 148.99890625 29.72921875 147.859375 29.7265625 C146.70953125 29.73429687 145.5596875 29.74203125 144.375 29.75 C143.21742188 29.74226563 142.05984375 29.73453125 140.8671875 29.7265625 C139.76375 29.72914062 138.6603125 29.73171875 137.5234375 29.734375 C136.51200684 29.73663086 135.50057617 29.73888672 134.45849609 29.74121094 C131.82252294 29.75801157 131.82252294 29.75801157 130 32 C127.57324219 32.25878906 127.57324219 32.25878906 124.546875 32.265625 C122.90525391 32.26949219 122.90525391 32.26949219 121.23046875 32.2734375 C120.08191406 32.26570313 118.93335938 32.25796875 117.75 32.25 C116.61691406 32.25773437 115.48382813 32.26546875 114.31640625 32.2734375 C113.21683594 32.27085938 112.11726563 32.26828125 110.984375 32.265625 C109.98116211 32.26336914 108.97794922 32.26111328 107.94433594 32.25878906 C104.56543304 31.96180423 100.50220077 31.50220077 98 29 C96.24536571 28.71309993 94.48111874 28.48453744 92.71484375 28.28125 C91.62623047 28.15363281 90.53761719 28.02601562 89.41601562 27.89453125 C88.26810547 27.76433594 87.12019531 27.63414063 85.9375 27.5 C83.69660102 27.23970006 81.45571531 26.97928586 79.21484375 26.71875 C78.14476074 26.59757812 77.07467773 26.47640625 75.97216797 26.3515625 C73.45419592 26.05372451 70.95045909 25.70675695 68.44140625 25.34375 C65.20539938 24.81732638 65.20539938 24.81732638 62.94921875 25.54296875 C54.36603949 27.55545767 41.15756577 20.44379955 33.86328125 16.15625 C29.44875905 13.61687105 24.83777133 11.56600379 20.1875 9.5 C19.34896484 9.12230469 18.51042969 8.74460937 17.64648438 8.35546875 C11.82276693 5.75023927 5.93989106 3.32744163 0 1 C0 0.67 0 0.34 0 0 Z " fill="#F4F4F4" transform="translate(163,1172)"/>
<path d="M0 0 C61.38 0 122.76 0 186 0 C186 4.95 186 9.9 186 15 C124.62 15 63.24 15 0 15 C0 10.05 0 5.1 0 0 Z " fill="#0179E9" transform="translate(167,873)"/>
<path d="M0 0 C0.495 1.485 0.495 1.485 1 3 C5.46628401 2.93094752 9.93167585 2.84289769 14.3972168 2.73754883 C15.91501621 2.70438084 17.43293656 2.67632368 18.95092773 2.65356445 C21.13838019 2.61986722 23.32473264 2.56754796 25.51171875 2.51171875 C26.82615967 2.48553467 28.14060059 2.45935059 29.49487305 2.43237305 C33.17656234 1.97822025 34.9553626 1.01415481 38 -1 C40.77570783 -1.39734059 43.34158352 -1.64980814 46.125 -1.75 C46.87402588 -1.78383789 47.62305176 -1.81767578 48.39477539 -1.85253906 C61.13169161 -2.32858319 61.13169161 -2.32858319 66 -1 C66.99 0.485 66.99 0.485 68 2 C71.05467518 2.46814052 71.05467518 2.46814052 74.65234375 2.3984375 C75.30828018 2.40130768 75.96421661 2.40417786 76.64002991 2.40713501 C78.02785098 2.40917703 79.41570074 2.40363738 80.8034668 2.39111328 C82.92627555 2.37508475 85.04717317 2.3909414 87.16992188 2.41015625 C88.51823337 2.40817334 89.86654367 2.40432866 91.21484375 2.3984375 C92.44323975 2.39505371 93.67163574 2.39166992 94.93725586 2.38818359 C98.35208133 1.9553759 98.80672528 1.43513368 101 -1 C103.10961914 -1.44824219 103.10961914 -1.44824219 105.53515625 -1.546875 C106.42783203 -1.58683594 107.32050781 -1.62679687 108.24023438 -1.66796875 C109.63725586 -1.70857422 109.63725586 -1.70857422 111.0625 -1.75 C111.96677734 -1.79253906 112.87105469 -1.83507813 113.80273438 -1.87890625 C126.71269765 -2.37721791 126.71269765 -2.37721791 132 -1 C132.99 0.485 132.99 0.485 134 2 C136.87425146 2.46789867 136.87425146 2.46789867 140.2578125 2.3984375 C141.52367187 2.40230469 142.78953125 2.40617187 144.09375 2.41015625 C144.75632812 2.40387207 145.41890625 2.39758789 146.1015625 2.39111328 C148.09630102 2.37522854 150.0912143 2.39245161 152.0859375 2.41015625 C159.19016391 2.38858471 164.52157861 1.87765871 171 -1 C179.1793515 -2.49883404 190.86130445 -3.75913036 198 1 C198 1.66 198 2.32 198 3 C202.39675988 2.88202982 206.79328399 2.75780274 211.18969727 2.62768555 C212.68639269 2.58428187 214.18313939 2.54261087 215.67993164 2.50268555 C217.82714312 2.44511384 219.97409521 2.38138284 222.12109375 2.31640625 C223.4145874 2.27974854 224.70808105 2.24309082 226.04077148 2.20532227 C228.88555008 2.3332722 228.88555008 2.3332722 230 1 C251.98605732 -4.00697134 251.98605732 -4.00697134 262 1 C262 1.66 262 2.32 262 3 C272.89 3 283.78 3 295 3 C295 2.34 295 1.68 295 1 C305.89 1 316.78 1 328 1 C328 1.66 328 2.32 328 3 C338.56 3 349.12 3 360 3 C360 2.34 360 1.68 360 1 C364.53897705 0.97534608 369.07791543 0.95716211 373.61694336 0.94506836 C375.16219766 0.9400286 376.70744716 0.9331968 378.25268555 0.92456055 C380.46925029 0.91247924 382.68575218 0.90676827 384.90234375 0.90234375 C385.5971434 0.89718246 386.29194305 0.89202118 387.00779724 0.88670349 C388.6722933 0.88650723 390.33665499 0.93810871 392 1 C392.33 1.33 392.66 1.66 393 2 C395.44608998 2.15980437 397.86731058 2.25929447 400.31640625 2.31640625 C401.04746078 2.33718735 401.77851532 2.35796844 402.53172302 2.37937927 C404.87521656 2.44495024 407.21882539 2.50379432 409.5625 2.5625 C411.14779855 2.60567808 412.73308529 2.64929213 414.31835938 2.69335938 C418.21212037 2.8006392 422.10599772 2.9018849 426 3 C426 2.34 426 1.68 426 1 C436.56 1 447.12 1 458 1 C458 1.66 458 2.32 458 3 C469.22 3 480.44 3 492 3 C492 2.34 492 1.68 492 1 C502.56 1 513.12 1 524 1 C524 1.66 524 2.32 524 3 C534.89 3 545.78 3 557 3 C557 2.34 557 1.68 557 1 C567.56 1 578.12 1 589 1 C589 1.66 589 2.32 589 3 C599.89 3 610.78 3 622 3 C622 2.34 622 1.68 622 1 C626.53897705 0.97534608 631.07791543 0.95716211 635.61694336 0.94506836 C637.16219766 0.9400286 638.70744716 0.9331968 640.25268555 0.92456055 C642.46925029 0.91247924 644.68575218 0.90676827 646.90234375 0.90234375 C647.5971434 0.89718246 648.29194305 0.89202118 649.00779724 0.88670349 C650.6722933 0.88650723 652.33665499 0.93810871 654 1 C654.33 1.33 654.66 1.66 655 2 C656.63066766 2.22714004 658.26976003 2.39455086 659.91015625 2.53515625 C661.39418945 2.66567383 661.39418945 2.66567383 662.90820312 2.79882812 C664.46958008 2.9293457 664.46958008 2.9293457 666.0625 3.0625 C667.10728516 3.15337891 668.15207031 3.24425781 669.22851562 3.33789062 C671.8186915 3.56260908 674.40915767 3.7831231 677 4 C677 4.33 677 4.66 677 5 C676.0489758 4.99953206 676.0489758 4.99953206 675.07873899 4.99905466 C606.01350371 4.96514309 536.94826748 4.93373487 467.88302612 4.91531372 C466.85045851 4.91503761 465.8178909 4.91476149 464.75403337 4.91447701 C442.31059898 4.90849043 419.86716451 4.90295018 397.4237299 4.89786934 C386.41660117 4.89537479 375.40947245 4.89278166 364.40234375 4.89013672 C362.75937928 4.88974444 362.75937928 4.88974444 361.08322362 4.88934424 C325.61612454 4.88082989 290.14903186 4.86581351 254.68193666 4.84740556 C218.21821018 4.82851483 181.75448724 4.81622319 145.29075596 4.81217002 C140.13403174 4.81159376 134.97730754 4.81094248 129.82058334 4.81024551 C128.80572074 4.81011067 127.79085813 4.80997582 126.74524212 4.80983689 C110.44481802 4.8074785 94.1444049 4.79821602 77.84398527 4.78633593 C61.43473436 4.77452516 45.02549427 4.77007309 28.61623926 4.77299725 C18.88138533 4.77451205 9.14657116 4.77052003 -0.58827556 4.75840491 C-7.11043913 4.75084672 -13.63257698 4.75071326 -20.1547424 4.75633637 C-23.85860289 4.7593254 -27.56238878 4.75935435 -31.26624094 4.75023364 C-44.97912115 4.71855332 -58.63317711 4.86471111 -72.31437874 5.89003181 C-73.8704322 6.00634257 -73.8704322 6.00634257 -75.45792108 6.12500303 C-80.99071294 6.59208858 -86.32155242 7.35829913 -91.73504137 8.60152232 C-94.19638721 9.03455071 -96.50583451 9.06553581 -99 9 C-95.33692273 4.4750222 -89.56463429 2.85601806 -84 2 C-82.10736049 1.99594615 -80.21399237 2.05205589 -78.32421875 2.15625 C-76.71063477 2.23552734 -76.71063477 2.23552734 -75.06445312 2.31640625 C-72.82483517 2.43816686 -70.58525129 2.56055604 -68.34570312 2.68359375 C-61.57292461 3.0425097 -61.57292461 3.0425097 -54.83203125 2.50390625 C-50.13496938 1.8862498 -45.71221385 2.12262857 -41 2.4375 C-40.12988281 2.48970703 -39.25976562 2.54191406 -38.36328125 2.59570312 C-36.24178191 2.72392561 -34.12082275 2.8610348 -32 3 C-32 2.34 -32 1.68 -32 1 C-21.51748164 -2.27578699 -10.55468997 -3.58105553 0 0 Z " fill="#F1F1F1" transform="translate(325,50)"/>
<path d="M0 0 C0.33 0 0.66 0 1 0 C1.0825 1.093125 1.165 2.18625 1.25 3.3125 C2.12858242 7.63219689 2.63151003 7.59393573 6 10 C10.85395968 17.01127509 11.09364467 24.6942121 10 33 C8.56640625 34.75390625 8.56640625 34.75390625 7 36 C6.505 37.03125 6.01 38.0625 5.5 39.125 C4 42 4 42 1 43 C1 45.64 1 48.28 1 51 C0.67 51 0.34 51 0 51 C0 58.59 0 66.18 0 74 C1.65 74.33 3.3 74.66 5 75 C5.268125 76.093125 5.53625 77.18625 5.8125 78.3125 C6.6061419 81.90827912 6.6061419 81.90827912 8.5546875 83.2890625 C10.85080915 86.00717407 10.35918043 88.59019388 10.3125 92.0625 C10.30863281 93.31160156 10.30476563 94.56070313 10.30078125 95.84765625 C10 99 10 99 8 101 C7.67 101.99 7.34 102.98 7 104 C6 107 6 107 4 109 C3.01 109 2.02 109 1 109 C-0.53266582 112.06533164 -0.10276471 115.26754272 -0.0625 118.625 C-0.05798828 119.33140625 -0.05347656 120.0378125 -0.04882812 120.765625 C-0.03703875 122.51045275 -0.01910324 124.255237 0 126 C0.33 126 0.66 126 1 126 C1 129.96 1 133.92 1 138 C2.32 138.66 3.64 139.32 5 140 C9.91444248 145.36856081 10.72088485 150.6473313 10.4375 157.6875 C10.43169922 158.51572266 10.42589844 159.34394531 10.41992188 160.19726562 C10.33417388 164.48123529 10.16341613 168.19034803 8 172 C5 174 5 174 -1 173 C-0.67 183.23 -0.34 193.46 0 204 C1.32 204.33 2.64 204.66 4 205 C4.90440828 211.78306208 5.19443077 218.53928326 5.3125 225.375 C5.34214844 226.25510742 5.37179687 227.13521484 5.40234375 228.04199219 C5.46062077 234.36747745 5.46062077 234.36747745 3.10546875 237.6015625 C1 239 1 239 -1 239 C-0.67 248.57 -0.34 258.14 0 268 C1.32 268.66 2.64 269.32 4 270 C5.12536963 272.7956434 5.1284463 275.52961754 5.1328125 278.51953125 C5.13410156 279.37740234 5.13539062 280.23527344 5.13671875 281.11914062 C5.13285156 282.00794922 5.12898438 282.89675781 5.125 283.8125 C5.12886719 284.68970703 5.13273437 285.56691406 5.13671875 286.47070312 C5.11665496 299.88334504 5.11665496 299.88334504 2 303 C1.60235737 304.98821313 1.26224651 306.98944339 1 309 C0.67 309 0.34 309 0 309 C-1.20774284 302.13735315 -1.34968977 295.26322478 -1.55419922 288.30859375 C-1.57516151 287.60781645 -1.59612381 286.90703915 -1.61772132 286.18502617 C-2.25097806 264.3632032 -2.14628957 242.52969566 -2.1343255 220.70090866 C-2.13174795 214.50250967 -2.13415415 208.30411196 -2.13571167 202.10571289 C-2.13751792 191.70751678 -2.13516802 181.30932783 -2.13037109 170.91113281 C-2.12493149 158.98401725 -2.12669525 147.0569188 -2.1321975 135.12980366 C-2.13677307 124.78730532 -2.13735767 114.44481206 -2.13475883 104.10231304 C-2.13322026 97.96990873 -2.13293423 91.8375124 -2.13629532 85.70510864 C-2.1569788 41.83323476 -2.1569788 41.83323476 -1.55419922 21.75390625 C-1.51547762 20.44550278 -1.47675602 19.1370993 -1.43686104 17.78904724 C-1.2295417 11.79935407 -0.87873391 5.92991239 0 0 Z " fill="#F7F7F7" transform="translate(1201,577)"/>
<path d="M0 0 C0.33 0 0.66 0 1 0 C1 239.25 1 478.5 1 725 C0.67 725 0.34 725 0 725 C-0.09087891 723.46279297 -0.09087891 723.46279297 -0.18359375 721.89453125 C-0.26805026 720.53384305 -0.35269567 719.17316657 -0.4375 717.8125 C-0.47681641 717.13896484 -0.51613281 716.46542969 -0.55664062 715.77148438 C-0.73062391 713.02790185 -0.91912096 710.36564707 -1.51367188 707.67773438 C-2.08489475 704.53256745 -2.11225235 701.58326416 -2.09765625 698.38671875 C-2.09443359 697.13955078 -2.09121094 695.89238281 -2.08789062 694.60742188 C-2.07532227 692.66706055 -2.07532227 692.66706055 -2.0625 690.6875 C-2.05798828 689.37458984 -2.05347656 688.06167969 -2.04882812 686.70898438 C-2.03705949 683.4726099 -2.0206176 680.23632822 -2 677 C-1.34 677 -0.68 677 0 677 C0 666.11 0 655.22 0 644 C-0.66 644 -1.32 644 -2 644 C-2.02465504 639.60343827 -2.04283842 635.2069128 -2.05493164 630.81030273 C-2.05997121 629.31355082 -2.06680287 627.81680384 -2.07543945 626.32006836 C-2.08752159 624.17300193 -2.09323191 622.02600038 -2.09765625 619.87890625 C-2.10289307 618.5854126 -2.10812988 617.29191895 -2.11352539 615.95922852 C-2 613 -2 613 -1 612 C-0.84019563 609.55391002 -0.74070553 607.13268942 -0.68359375 604.68359375 C-0.66281265 603.95253922 -0.64203156 603.22148468 -0.62062073 602.46827698 C-0.55504976 600.12478344 -0.49620568 597.78117461 -0.4375 595.4375 C-0.39432192 593.85220145 -0.35070787 592.26691471 -0.30664062 590.68164062 C-0.1993608 586.78787963 -0.0981151 582.89400228 0 579 C-0.66 579 -1.32 579 -2 579 C-2 568.44 -2 557.88 -2 547 C-1.34 547 -0.68 547 0 547 C0 536.11 0 525.22 0 514 C-0.66 514 -1.32 514 -2 514 C-2.02465504 509.60343827 -2.04283842 505.2069128 -2.05493164 500.81030273 C-2.05997121 499.31355082 -2.06680287 497.81680384 -2.07543945 496.32006836 C-2.08752159 494.17300193 -2.09323191 492.02600038 -2.09765625 489.87890625 C-2.10289307 488.5854126 -2.10812988 487.29191895 -2.11352539 485.95922852 C-2 483 -2 483 -1 482 C-0.84019563 479.55391002 -0.74070553 477.13268942 -0.68359375 474.68359375 C-0.66281265 473.95253922 -0.64203156 473.22148468 -0.62062073 472.46827698 C-0.55504976 470.12478344 -0.49620568 467.78117461 -0.4375 465.4375 C-0.39432192 463.85220145 -0.35070787 462.26691471 -0.30664062 460.68164062 C-0.1993608 456.78787963 -0.0981151 452.89400228 0 449 C-0.66 449 -1.32 449 -2 449 C-2 438.44 -2 427.88 -2 417 C-1.34 417 -0.68 417 0 417 C-0.11795925 412.31842099 -0.24218549 407.63706712 -0.37231445 402.95581055 C-0.41572146 401.362107 -0.45739219 399.7683552 -0.49731445 398.17456055 C-0.55487807 395.88836092 -0.61861149 393.60240551 -0.68359375 391.31640625 C-0.70030624 390.59973282 -0.71701874 389.88305939 -0.73423767 389.14466858 C-0.55018654 385.78472618 -0.55018654 385.78472618 -2 383 C-2.08790975 380.70848583 -2.10694038 378.41427476 -2.09765625 376.12109375 C-2.0962413 375.4344313 -2.09482635 374.74776886 -2.09336853 374.04029846 C-2.08775479 371.83932199 -2.07520007 369.63844591 -2.0625 367.4375 C-2.05748676 365.94856917 -2.05292355 364.45963676 -2.04882812 362.97070312 C-2.03778093 359.31376925 -2.02050713 355.65689442 -2 352 C-1.34 352 -0.68 352 0 352 C0 341.11 0 330.22 0 319 C-0.66 319 -1.32 319 -2 319 C-2.02465392 314.46102295 -2.04283789 309.92208457 -2.05493164 305.38305664 C-2.0599714 303.83780234 -2.0668032 302.29255284 -2.07543945 300.74731445 C-2.08752076 298.53074971 -2.09323173 296.31424782 -2.09765625 294.09765625 C-2.10281754 293.4028566 -2.10797882 292.70805695 -2.11329651 291.99220276 C-2.11349277 290.3277067 -2.06189129 288.66334501 -2 287 C-1.67 286.67 -1.34 286.34 -1 286 C-0.84019563 283.55391002 -0.74070553 281.13268942 -0.68359375 278.68359375 C-0.66281265 277.95253922 -0.64203156 277.22148468 -0.62062073 276.46827698 C-0.55504976 274.12478344 -0.49620568 271.78117461 -0.4375 269.4375 C-0.39432192 267.85220145 -0.35070787 266.26691471 -0.30664062 264.68164062 C-0.1993608 260.78787963 -0.0981151 256.89400228 0 253 C-0.66 253 -1.32 253 -2 253 C-2 242.44 -2 231.88 -2 221 C-1.34 221 -0.68 221 0 221 C0 210.11 0 199.22 0 188 C-0.66 188 -1.32 188 -2 188 C-2.02911003 184.10418244 -2.04683587 180.208393 -2.0625 176.3125 C-2.07087891 175.20970703 -2.07925781 174.10691406 -2.08789062 172.97070312 C-2.09111328 171.90400391 -2.09433594 170.83730469 -2.09765625 169.73828125 C-2.10289307 168.75899658 -2.10812988 167.77971191 -2.11352539 166.77075195 C-2 164 -2 164 -1.43139648 161.32885742 C-0.77917364 158.8562589 -0.77917364 158.8562589 -2 156 C-1.34 156 -0.68 156 0 156 C-0.11795925 151.31842099 -0.24218549 146.63706712 -0.37231445 141.95581055 C-0.41572146 140.362107 -0.45739219 138.7683552 -0.49731445 137.17456055 C-0.55487807 134.88836092 -0.61861149 132.60240551 -0.68359375 130.31640625 C-0.70030624 129.59973282 -0.71701874 128.88305939 -0.73423767 128.14466858 C-0.55018654 124.78472618 -0.55018654 124.78472618 -2 122 C-2.08790975 119.70848583 -2.10694038 117.41427476 -2.09765625 115.12109375 C-2.0962413 114.4344313 -2.09482635 113.74776886 -2.09336853 113.04029846 C-2.08775479 110.83932199 -2.07520007 108.63844591 -2.0625 106.4375 C-2.05748676 104.94856917 -2.05292355 103.45963676 -2.04882812 101.97070312 C-2.03778093 98.31376925 -2.02050713 94.65689442 -2 91 C-1.34 91 -0.68 91 0 91 C-0.11795925 86.31842099 -0.24218549 81.63706712 -0.37231445 76.95581055 C-0.41572146 75.362107 -0.45739219 73.7683552 -0.49731445 72.17456055 C-0.55487807 69.88836092 -0.61861149 67.60240551 -0.68359375 65.31640625 C-0.70030624 64.59973282 -0.71701874 63.88305939 -0.73423767 63.14466858 C-0.55018654 59.78472618 -0.55018654 59.78472618 -2 57 C-2.08790975 54.70848583 -2.10694038 52.41427476 -2.09765625 50.12109375 C-2.0962413 49.4344313 -2.09482635 48.74776886 -2.09336853 48.04029846 C-2.08775479 45.83932199 -2.07520007 43.63844591 -2.0625 41.4375 C-2.05748676 39.94856917 -2.05292355 38.45963676 -2.04882812 36.97070312 C-2.03778093 33.31376925 -2.02050713 29.65689442 -2 26 C-1.34 26 -0.68 26 0 26 C0 17.42 0 8.84 0 0 Z " fill="#F0F0F0" transform="translate(53,267)"/>
<path d="M0 0 C27.06 0 54.12 0 82 0 C82 5.28 82 10.56 82 16 C54.94 16 27.88 16 0 16 C0 10.72 0 5.44 0 0 Z " fill="#067AE5" transform="translate(170,1000)"/>
<path d="M0 0 C26.07 0 52.14 0 79 0 C79 4.95 79 9.9 79 15 C77.30331793 16.69668207 75.18867982 16.11968993 72.92559814 16.12442017 C72.19983582 16.12082489 71.47407349 16.11722961 70.72631836 16.11352539 C69.58493156 16.11374443 69.58493156 16.11374443 68.42048645 16.1139679 C65.89357702 16.11326862 63.36674038 16.10547555 60.83984375 16.09765625 C59.0924941 16.09579212 57.34514393 16.0943682 55.59779358 16.09336853 C50.98968066 16.08954293 46.38159905 16.07971229 41.77349854 16.06866455 C37.07491479 16.05845134 32.37632601 16.0538711 27.67773438 16.04882812 C18.45180692 16.03809005 9.22591096 16.02049292 0 16 C0 10.72 0 5.44 0 0 Z " fill="#077BE4" transform="translate(310,941)"/>
<path d="M0 0 C11.22 0 22.44 0 34 0 C34 11.88 34 23.76 34 36 C22.78 36 11.56 36 0 36 C0 24.12 0 12.24 0 0 Z " fill="#FBFBFB" transform="translate(717,281)"/>
<path d="M0 0 C7.26 0 14.52 0 22 0 C22 6.6 22 13.2 22 20 C14.74 20 7.48 20 0 20 C0 13.4 0 6.8 0 0 Z " fill="#0179E3" transform="translate(999,978)"/>
<path d="M0 0 C0.33 0 0.66 0 1 0 C1.01458252 0.86165771 1.02916504 1.72331543 1.04418945 2.61108398 C1.10572869 5.84874375 1.17996783 9.08580928 1.26245117 12.32299805 C1.29543308 13.71644362 1.32354567 15.11001422 1.34643555 16.50366211 C0.97671644 29.08439734 0.97671644 29.08439734 6 40 C6.12663091 42.82416382 6.18520548 45.61294793 6.1875 48.4375 C6.19974609 49.22705078 6.21199219 50.01660156 6.22460938 50.83007812 C6.22987279 52.88807435 6.12206285 54.94562009 6 57 C5.34 57.66 4.68 58.32 4 59 C3.63239269 61.32817964 3.29758419 63.6618385 3 66 C2.505 66.495 2.505 66.495 2 67 C1.71461873 71.47227037 1.76802018 75.95723396 1.75 80.4375 C1.729375 81.68466797 1.70875 82.93183594 1.6875 84.21679688 C1.65941795 90.8968154 2.13523347 96.46939235 4.32324219 102.78100586 C6.09659181 108.59557106 5.24687785 114.99469627 5 121 C4.9690625 121.97582031 4.938125 122.95164062 4.90625 123.95703125 C4.75 126.375 4.75 126.375 4 130 C1.953125 131.2265625 1.953125 131.2265625 0 132 C0 133.65 0 135.3 0 137 C-0.66 137 -1.32 137 -2 137 C-2.03738281 137.58265625 -2.07476563 138.1653125 -2.11328125 138.765625 C-2.67209056 145.7343058 -4.15990547 152.26455965 -6 159 C-6.33 159 -6.66 159 -7 159 C-6.48642507 153.68423479 -5.7609014 148.56261754 -4.61437988 143.34944153 C1.75599263 113.3439795 0.25759138 82.1411822 0.1373291 51.65252686 C0.11654755 45.81198601 0.10766767 39.97142685 0.09765625 34.13085938 C0.07646596 22.75385943 0.04251692 11.37693891 0 0 Z " fill="#F6F6F6" transform="translate(1199,879)"/>
<path d="M0 0 C4.83837891 0.77783203 4.83837891 0.77783203 6.29296875 2.77734375 C6.58816406 3.49019531 6.88335938 4.20304687 7.1875 4.9375 C8.30419707 7.55579824 8.95357649 8.95357649 11 11 C11.3359375 14.1171875 11.3359375 14.1171875 11.375 17.875 C11.40335938 19.10992187 11.43171875 20.34484375 11.4609375 21.6171875 C10.9233292 25.56268573 9.96748895 26.4938673 7 29 C6.690625 29.86625 6.38125 30.7325 6.0625 31.625 C5 34 5 34 0 36 C0 45.57 0 55.14 0 65 C-0.33 65 -0.66 65 -1 65 C-1.14924786 43.31084176 -0.75681015 21.67576718 0 0 Z " fill="#F8F8F8" transform="translate(1200,324)"/>
<path d="M0 0 C1.65 0.33 3.3 0.66 5 1 C5.18175781 1.61488281 5.36351562 2.22976563 5.55078125 2.86328125 C5.80214844 3.67152344 6.05351563 4.47976563 6.3125 5.3125 C6.55613281 6.11300781 6.79976562 6.91351562 7.05078125 7.73828125 C7.83329353 10.05280543 7.83329353 10.05280543 9.578125 11.421875 C11.71938786 13.79844147 11.43362169 15.79994833 11.4375 18.9375 C11.45683594 19.97777344 11.47617188 21.01804687 11.49609375 22.08984375 C10.88890574 25.6516947 9.66407232 26.66255724 7 29 C6.649375 29.886875 6.29875 30.77375 5.9375 31.6875 C5.628125 32.450625 5.31875 33.21375 5 34 C3.515 34.495 3.515 34.495 2 35 C2 36.98 2 38.96 2 41 C1.67 41 1.34 41 1 41 C0.67 48.92 0.34 56.84 0 65 C-0.33 65 -0.66 65 -1 65 C-1.14924786 43.31084176 -0.75681015 21.67576718 0 0 Z " fill="#F8F8F8" transform="translate(1200,520)"/>
<path d="M0 0 C1.65 0.33 3.3 0.66 5 1 C7.52284518 8.90491489 8.69060408 15.73338466 6.53125 23.859375 C5.87912061 26.2638626 5.87912061 26.2638626 5.625 29.875 C5.41875 30.90625 5.2125 31.9375 5 33 C4.0095166 33.62708862 4.0095166 33.62708862 2.99902344 34.2668457 C0.68090915 35.90881891 0.68090915 35.90881891 0.45410156 39.09448242 C0.4331543 40.33560791 0.41220703 41.5767334 0.390625 42.85546875 C0.37408875 43.51710526 0.35755249 44.17874176 0.34051514 44.86042786 C0.29200712 46.96954601 0.27066073 49.07794323 0.25 51.1875 C0.22184223 52.61917695 0.19191505 54.05082028 0.16015625 55.48242188 C0.08625107 58.98812393 0.03669212 62.49368875 0 66 C-0.33 66 -0.66 66 -1 66 C-1.13374705 43.97494751 -0.84257306 22.0099804 0 0 Z " fill="#F8F8F8" transform="translate(1200,454)"/>
<path d="M0 0 C0.66 0.33 1.32 0.66 2 1 C2 11.23082822 2 11.23082822 -1.3125 15.4375 C-5.09903444 19.04791656 -7.8889612 19.12872585 -12.984375 19.09765625 C-13.91894531 19.09443359 -14.85351562 19.09121094 -15.81640625 19.08789062 C-17.26853516 19.07532227 -17.26853516 19.07532227 -18.75 19.0625 C-19.73355469 19.05798828 -20.71710938 19.05347656 -21.73046875 19.04882812 C-24.15370791 19.03706483 -26.57682273 19.02062684 -29 19 C-27 17 -27 17 -23.5 16.625 C-22.345 16.41875 -21.19 16.2125 -20 16 C-19.30488861 14.68127244 -18.64059389 13.34605412 -18 12 C-16.3359375 10.65966797 -16.3359375 10.65966797 -14.375 9.4921875 C-13.66859375 9.06292969 -12.9621875 8.63367187 -12.234375 8.19140625 C-11.12835937 7.53978516 -11.12835937 7.53978516 -10 6.875 C-8.54029139 5.99968522 -7.08189677 5.12217442 -5.625 4.2421875 C-4.97789063 3.8591748 -4.33078125 3.47616211 -3.6640625 3.08154297 C-1.83863664 1.97699969 -1.83863664 1.97699969 0 0 Z " fill="#F7F7F7" transform="translate(1111,1155)"/>
<path d="M0 0 C0.33 0 0.66 0 1 0 C1 1.98 1 3.96 1 6 C2.32 6.66 3.64 7.32 5 8 C5 18.23 5 28.46 5 39 C3.68 39.66 2.36 40.32 1 41 C1 41.66 1 42.32 1 43 C0.34 43 -0.32 43 -1 43 C-1 52.24 -1 61.48 -1 71 C-1.33 71 -1.66 71 -2 71 C-2.11374016 54.47093053 -2.03535943 37.9608228 -1.5625 21.4375 C-1.54285187 20.70484924 -1.52320374 19.97219849 -1.50296021 19.21734619 C-1.44566103 17.1225826 -1.38220427 15.02810585 -1.31640625 12.93359375 C-1.27974854 11.73790771 -1.24309082 10.54222168 -1.20532227 9.31030273 C-1.00891379 6.14371231 -0.58307774 3.11636819 0 0 Z " fill="#FAFAFA" transform="translate(1201,383)"/>
<path d="M0 0 C10.56 0 21.12 0 32 0 C32 1.65 32 3.3 32 5 C26.55287396 6.82294258 21.787759 7.30797731 16.0625 7.25 C15.30259766 7.25773437 14.54269531 7.26546875 13.75976562 7.2734375 C8.53323045 7.25558426 4.0241394 6.44036761 -1 5 C-0.67 3.35 -0.34 1.7 0 0 Z " fill="#F5F4F5" transform="translate(915,1199)"/>
<path d="M0 0 C10.23 0 20.46 0 31 0 C31.495 2.97 31.495 2.97 32 6 C27.60272275 7.23862614 23.41603328 7.19101575 18.875 7.1875 C18.02639404 7.18814453 17.17778809 7.18878906 16.3034668 7.18945312 C10.3000711 7.13886433 4.82723446 6.52845494 -1 5 C-0.67 3.35 -0.34 1.7 0 0 Z " fill="#F5F5F5" transform="translate(523,1199)"/>
<path d="M0 0 C10.23 0 20.46 0 31 0 C31.495 2.475 31.495 2.475 32 5 C27.41395975 7.30675078 23.32500025 7.3082486 18.3125 7.25 C17.51537598 7.24613281 16.71825195 7.24226563 15.89697266 7.23828125 C10.09887937 7.15337933 4.60198905 6.57643913 -1 5 C-0.67 3.35 -0.34 1.7 0 0 Z " fill="#F5F5F5" transform="translate(785,1199)"/>
<path d="M0 0 C0.33 0 0.66 0 1 0 C1.02708567 1.60407328 1.04643483 3.2082785 1.0625 4.8125 C1.07410156 5.70582031 1.08570313 6.59914063 1.09765625 7.51953125 C1 10 1 10 0 13 C0.66 13 1.32 13 2 13 C2.42329197 14.6931679 2.84653087 16.38634908 3.26953125 18.07958984 C3.63449955 19.53847844 4.00040001 20.99713412 4.3671875 22.45556641 C5.19718307 25.76031274 6.01529465 29.06524711 6.79296875 32.3828125 C8.14178931 38.09108074 9.86308067 43.33109516 12.1484375 48.73046875 C13.31326466 51.83489344 13.71359348 54.70632504 14 58 C12 56 12 56 11 53 C10.67 57.29 10.34 61.58 10 66 C7.52014552 62.28021829 7.892965 59.58448964 8.0625 55.3125 C8.1984091 48.2128297 7.43940356 43.47223986 4.015625 37.1953125 C1.2431448 31.71433242 0.15673548 26.26847456 -0.8125 20.25 C-0.94849609 19.42137451 -1.08449219 18.59274902 -1.22460938 17.73901367 C-1.84574286 13.54933257 -2.1846632 10.1387272 -1 6 C-0.66055205 4.00102872 -0.32578384 2.00124361 0 0 Z " fill="#F5F5F5" transform="translate(55,1003)"/>
<path d="M0 0 C0 1.65 0 3.3 0 5 C-7.55597646 9.04741687 -15.11511032 12.60800886 -23.1875 15.5 C-23.91767334 15.76699707 -24.64784668 16.03399414 -25.40014648 16.30908203 C-30.62815958 18.12394681 -30.62815958 18.12394681 -34 17 C-34 16.34 -34 15.68 -34 15 C-34.99 14.67 -35.98 14.34 -37 14 C-36.4016333 13.78907715 -35.8032666 13.5781543 -35.18676758 13.36083984 C-24.67874244 9.64120279 -14.27828772 5.95894788 -4.265625 1.03125 C-2 0 -2 0 0 0 Z " fill="#F6F6F6" transform="translate(1078,1176)"/>
<path d="M0 0 C11.22 0 22.44 0 34 0 C33.67 1.65 33.34 3.3 33 5 C22.11 5 11.22 5 0 5 C0 3.35 0 1.7 0 0 Z " fill="#E7E7E7" transform="translate(751,1199)"/>
<path d="M0 0 C10.56 0 21.12 0 32 0 C32.495 1.485 32.495 1.485 33 3 C31 5 31 5 27.92724609 5.22705078 C26.63898926 5.21657715 25.35073242 5.20610352 24.0234375 5.1953125 C23.33819 5.1924826 22.6529425 5.18965271 21.94692993 5.18673706 C19.75610973 5.17553281 17.56569684 5.15042859 15.375 5.125 C13.8906309 5.11497048 12.4062554 5.10584458 10.921875 5.09765625 C7.28111739 5.07559294 3.64059844 5.04106176 0 5 C0 3.35 0 1.7 0 0 Z " fill="#F6F5F5" transform="translate(326,1199)"/>
<path d="M0 0 C11.22 0 22.44 0 34 0 C33.67 1.32 33.34 2.64 33 4 C28.77717482 4.80395025 24.80386236 5.11811363 20.5078125 5.09765625 C19.30898438 5.09443359 18.11015625 5.09121094 16.875 5.08789062 C15.01875 5.07532227 15.01875 5.07532227 13.125 5.0625 C11.86429687 5.05798828 10.60359375 5.05347656 9.3046875 5.04882812 C6.20307614 5.0370796 3.10156275 5.02065167 0 5 C0 3.35 0 1.7 0 0 Z " fill="#E5E5E6" transform="translate(489,1199)"/>
<path d="M0 0 C11.22 0 22.44 0 34 0 C33.34 1.65 32.68 3.3 32 5 C21.44 5 10.88 5 0 5 C0 3.35 0 1.7 0 0 Z " fill="#E6E6E6" transform="translate(424,1199)"/>
<path d="M0 0 C11.22 0 22.44 0 34 0 C33.34 1.32 32.68 2.64 32 4 C26.87520028 5.52142492 21.31107723 5.14843122 16 5.125 C14.68515625 5.13080078 14.68515625 5.13080078 13.34375 5.13671875 C8.78193451 5.12984855 4.48822972 4.93012655 0 4 C0 2.68 0 1.36 0 0 Z " fill="#E7E7E7" transform="translate(620,1199)"/>
<path d="M0 0 C10.89 0 21.78 0 33 0 C33 1.32 33 2.64 33 4 C22.33558287 5.2138361 11.71729679 5.09531193 1 5 C0.67 3.35 0.34 1.7 0 0 Z " fill="#E4E4E4" transform="translate(554,1199)"/>
<path d="M0 0 C11.22 0 22.44 0 34 0 C33.67 1.32 33.34 2.64 33 4 C22.3051534 4.96288008 11.72867997 5.10947633 1 5 C0.67 3.35 0.34 1.7 0 0 Z " fill="#E5E5E5" transform="translate(881,1199)"/>
<path d="M0 0 C10.89 0 21.78 0 33 0 C33 1.65 33 3.3 33 5 C22.44 5 11.88 5 1 5 C0.67 3.35 0.34 1.7 0 0 Z " fill="#E4E4E5" transform="translate(816,1199)"/>
<path d="M0 0 C10.89 0 21.78 0 33 0 C33 1.65 33 3.3 33 5 C22.28907291 5.15498126 11.68514555 4.67842194 1 4 C0.67 2.68 0.34 1.36 0 0 Z " fill="#E5E5E5" transform="translate(685,1199)"/>
<path d="M0 0 C1.08102111 0.9160818 2.15171849 1.84556197 3.1875 2.8125 C0.41210163 4.20019919 -0.93236025 3.44563657 -3.9140625 2.66796875 C-4.95506104 2.40387207 -5.99605957 2.13977539 -7.06860352 1.86767578 C-8.18033936 1.58134277 -9.2920752 1.29500977 -10.4375 1 C-20.22193423 -1.44768658 -29.76178775 -3.31873501 -39.8125 -4.1875 C-39.8125 -4.5175 -39.8125 -4.8475 -39.8125 -5.1875 C-26.68419587 -6.96760903 -11.20539622 -8.34486374 0 0 Z " fill="#EFEFEF" transform="translate(1042.8125,60.1875)"/>
<path d="M0 0 C0.33 0.99 0.66 1.98 1 3 C2.65 3 4.3 3 6 3 C5.67 3.66 5.34 4.32 5 5 C4.01 5 3.02 5 2 5 C0.46733418 8.06533164 0.89723529 11.26754272 0.9375 14.625 C0.94201172 15.33140625 0.94652344 16.0378125 0.95117188 16.765625 C0.96296125 18.51045275 0.98089676 20.255237 1 22 C1.33 22 1.66 22 2 22 C2 25.96 2 29.92 2 34 C2.99 34.33 3.98 34.66 5 35 C3.515 35.495 3.515 35.495 2 36 C2.00523682 36.65484375 2.01047363 37.3096875 2.01586914 37.984375 C2.036827 40.98957333 2.0497195 43.99475621 2.0625 47 C2.07087891 48.02996094 2.07925781 49.05992187 2.08789062 50.12109375 C2.10613637 55.85025613 1.86475384 61.33484101 1 67 C3.31 67.33 5.62 67.66 8 68 C7.01 68.99 7.01 68.99 6 70 C2.875 69.625 2.875 69.625 0 69 C-0.59034406 51.50163693 -1.10184244 34.00948129 -1.125 16.5 C-1.12951172 15.18443115 -1.13402344 13.8688623 -1.13867188 12.51342773 C-1.13673828 11.30243408 -1.13480469 10.09144043 -1.1328125 8.84375 C-1.13168457 7.78349609 -1.13055664 6.72324219 -1.12939453 5.63085938 C-1 3 -1 3 0 0 Z " fill="#EDEDED" transform="translate(1200,681)"/>
<path d="M0 0 C0.33 0 0.66 0 1 0 C3.72724946 8.79147484 4.30103751 16.53299944 3.75 25.6875 C3.69714844 26.86505859 3.64429688 28.04261719 3.58984375 29.25585938 C3.16354008 37.83645992 3.16354008 37.83645992 2 39 C1.84111908 41.28988781 1.74861927 43.58443441 1.68359375 45.87890625 C1.6524221 46.90889992 1.6524221 46.90889992 1.62062073 47.95970154 C1.55505857 50.16052935 1.49620985 52.36147975 1.4375 54.5625 C1.39432108 56.05144514 1.350707 57.54037773 1.30664062 59.02929688 C1.1993707 62.68606553 1.09812228 66.34297318 1 70 C0.67 70 0.34 70 0 70 C0 46.9 0 23.8 0 0 Z " fill="#F1F1F1" transform="translate(1199,254)"/>
<path d="M0 0 C0.66 0 1.32 0 2 0 C2.04254356 1.99954746 2.04080783 4.00041636 2 6 C1.67 6.33 1.34 6.66 1 7 C0.65336094 9.20160097 0.36351971 11.41219136 0.09765625 13.625 C-0.07199077 14.98440933 -0.24192135 16.3437833 -0.41210938 17.703125 C-0.67675082 19.85570623 -0.93851832 22.00854813 -1.19506836 24.16210938 C-1.44364707 26.23415158 -1.70346943 28.3045387 -1.96484375 30.375 C-2.19095337 32.24285156 -2.19095337 32.24285156 -2.42163086 34.1484375 C-2.70792358 35.55996094 -2.70792358 35.55996094 -3 37 C-3.99 37.495 -3.99 37.495 -5 38 C-6.2758868 26.74760077 -5.98357444 17.54902937 -1.3125 7 C0.26721256 3.93498623 0.26721256 3.93498623 0 0 Z " fill="#F3F4F4" transform="translate(58,221)"/>
<path d="M0 0 C0.99 0.495 0.99 0.495 2 1 C2.71062955 3.48123175 3.31819437 5.92153198 3.875 8.4375 C5.21054803 14.16808806 6.84730927 19.4564109 9.18359375 24.87109375 C10.35031369 27.91349743 10.71860538 30.76396187 11 34 C9 32 9 32 8 29 C7.67 33.29 7.34 37.58 7 42 C4.47520359 38.21280539 4.94701156 36.50121762 5.1875 32 C5.4780066 22.82768145 3.16510543 14.64139267 0.45898438 5.94433594 C0 4 0 4 0 0 Z " fill="#EEEEEE" transform="translate(58,1027)"/>
<path d="M0 0 C10.89 0 21.78 0 33 0 C32.67 1.32 32.34 2.64 32 4 C31.67 3.67 31.34 3.34 31 3 C27.50759021 2.74509521 24.00058965 2.81475553 20.5 2.8125 C19.530625 2.80025391 18.56125 2.78800781 17.5625 2.77539062 C11.39326914 2.76295266 5.97084727 3.43943764 0 5 C0 3.35 0 1.7 0 0 Z " fill="#E2E1E2" transform="translate(947,1199)"/>
<path d="M0 0 C10.56 0 21.12 0 32 0 C32 1.65 32 3.3 32 5 C31.13938965 4.67402832 30.2787793 4.34805664 29.39208984 4.01220703 C25.95481762 2.98651748 23.2977106 2.7693296 19.7265625 2.8046875 C18.57285156 2.81113281 17.41914063 2.81757812 16.23046875 2.82421875 C14.44576172 2.84935547 14.44576172 2.84935547 12.625 2.875 C10.80548828 2.88853516 10.80548828 2.88853516 8.94921875 2.90234375 C5.96594227 2.92583412 2.98307406 2.95868318 0 3 C0 2.01 0 1.02 0 0 Z " fill="#E2E2E3" transform="translate(294,1199)"/>
<path d="M0 0 C11.22 0 22.44 0 34 0 C33.67 0.99 33.34 1.98 33 3 C32.34 3 31.68 3 31 3 C31 2.34 31 1.68 31 1 C26.7289011 1.1386402 22.45820108 1.28713901 18.1875 1.4375 C16.36508789 1.49647461 16.36508789 1.49647461 14.50585938 1.55664062 C13.34248047 1.59853516 12.17910156 1.64042969 10.98046875 1.68359375 C9.90692139 1.72025146 8.83337402 1.75690918 7.72729492 1.79467773 C4.90688447 1.89541847 4.90688447 1.89541847 2 3 C1.67 13.23 1.34 23.46 1 34 C0.67 34 0.34 34 0 34 C0 22.78 0 11.56 0 0 Z " fill="#F0EFEF" transform="translate(717,281)"/>
<path d="M0 0 C10.89 0 21.78 0 33 0 C33 1.32 33 2.64 33 4 C32.31139893 3.84152588 31.62279785 3.68305176 30.91333008 3.51977539 C27.70788437 2.94788283 24.64105877 2.78761375 21.38671875 2.68359375 C20.13955078 2.64169922 18.89238281 2.59980469 17.60742188 2.55664062 C16.31384766 2.51732422 15.02027344 2.47800781 13.6875 2.4375 C12.37458984 2.39431641 11.06167969 2.35113281 9.70898438 2.30664062 C6.47275712 2.20072773 3.23645542 2.09865115 0 2 C0 1.34 0 0.68 0 0 Z " fill="#E2E1E2" transform="translate(358,1199)"/>
<path d="M0 0 C1.98 0 3.96 0 6 0 C6.44484741 0.87567627 6.44484741 0.87567627 6.89868164 1.76904297 C14.03637512 16.07212823 14.03637512 16.07212823 22.85546875 29.35546875 C24 31 24 31 24 33 C20.40147167 31.80049056 20.09958504 30.98748013 18.22265625 27.80859375 C17.70896484 26.94556641 17.19527344 26.08253906 16.66601562 25.19335938 C16.13685547 24.28392578 15.60769531 23.37449219 15.0625 22.4375 C14.53720703 21.55513672 14.01191406 20.67277344 13.47070312 19.76367188 C5 5.41966521 5 5.41966521 5 2 C3.35 1.67 1.7 1.34 0 1 C0 0.67 0 0.34 0 0 Z " fill="#E8E8E8" transform="translate(70,1074)"/>
<path d="M0 0 C1.32 0.99 2.64 1.98 4 3 C2.68 3.33 1.36 3.66 0 4 C0.33 13.57 0.66 23.14 1 33 C1.99 33.33 2.98 33.66 4 34 C3.01 34.495 3.01 34.495 2 35 C1.67 41.27 1.34 47.54 1 54 C0.67 54 0.34 54 0 54 C-0.83305386 41.62319982 -1.10974505 29.2758907 -1.125 16.875 C-1.12749756 16.1536084 -1.12999512 15.4322168 -1.13256836 14.68896484 C-1.13844334 12.62332317 -1.13697806 10.55783073 -1.1328125 8.4921875 C-1.13168457 7.28933105 -1.13055664 6.08647461 -1.12939453 4.84716797 C-1 2 -1 2 0 0 Z " fill="#F1F1F1" transform="translate(1200,812)"/>
<path d="M0 0 C0.66 0 1.32 0 2 0 C3.55859375 1.765625 3.55859375 1.765625 5.4375 4.25 C8.70961641 8.44165277 12.10302698 12.4518414 15.6875 16.375 C16.13859131 16.87418945 16.58968262 17.37337891 17.05444336 17.88769531 C19.19915114 20.21908739 21.33809628 22.26581363 23.83203125 24.2265625 C24.54746094 24.81179688 25.26289062 25.39703125 26 26 C26 26.66 26 27.32 26 28 C24.68 28 23.36 28 22 28 C20.55859375 25.8125 20.55859375 25.8125 19 23 C17.39940174 21.28984493 15.75020265 19.62425518 14.0625 18 C10.76743422 14.81924268 7.83543808 11.59354469 5 8 C4.0925 7.13375 3.185 6.2675 2.25 5.375 C0 3 0 3 0 0 Z " fill="#E9E9E9" transform="translate(97,1112)"/>
<path d="M0 0 C2.88009477 1.35564533 5.3822466 2.90352479 7.94140625 4.79296875 C8.68535645 5.33800049 9.42930664 5.88303223 10.19580078 6.44458008 C10.97681152 7.01974365 11.75782227 7.59490723 12.5625 8.1875 C19.23019728 13.05684174 25.93458335 17.72028727 33 22 C32.505 23.485 32.505 23.485 32 25 C30.94619141 24.13761719 30.94619141 24.13761719 29.87109375 23.2578125 C27.00515306 21.00405234 24.07223982 18.93209834 21.0625 16.875 C19.92403507 16.09048782 18.78603178 15.3053054 17.6484375 14.51953125 C16.76236816 13.90779053 16.76236816 13.90779053 15.85839844 13.28369141 C15.24512695 12.86007324 14.63185547 12.43645508 14 12 C13.35063477 11.55188965 12.70126953 11.1037793 12.03222656 10.64208984 C10.07892262 9.28932398 8.13254673 7.92710344 6.1875 6.5625 C5.57076416 6.13759277 4.95402832 5.71268555 4.31860352 5.27490234 C2.84232722 4.23349324 1.41549316 3.12263251 0 2 C0 1.34 0 0.68 0 0 Z " fill="#E5E5E5" transform="translate(130,1147)"/>
<path d="M0 0 C9.24 0 18.48 0 28 0 C28 0.33 28 0.66 28 1 C24.7 1.33 21.4 1.66 18 2 C18 2.33 18 2.66 18 3 C11.73 3 5.46 3 -1 3 C-0.67 2.01 -0.34 1.02 0 0 Z " fill="#F3F2F2" transform="translate(882,51)"/>
<path d="M0 0 C10.89 0 21.78 0 33 0 C33 0.66 33 1.32 33 2 C22.33333333 2 11.66666667 2 1 2 C0.67 1.34 0.34 0.68 0 0 Z " fill="#F7F7F7" transform="translate(395,816)"/>
<path d="M0 0 C4.78580469 -0.33389335 7.0362121 0.38970065 11 3 C14.54815493 4.56829314 18.12644965 6.05255711 21.7109375 7.53515625 C22.92007813 8.03917969 24.12921875 8.54320312 25.375 9.0625 C26.31666016 9.44631836 26.31666016 9.44631836 27.27734375 9.83789062 C31.88721805 11.77443609 31.88721805 11.77443609 33 14 C28.0289182 13.33520463 23.82172377 11.26105051 19.3125 9.1875 C17.70766766 8.46083244 16.10220206 7.73556175 14.49609375 7.01171875 C13.72507324 6.66415527 12.95405273 6.3165918 12.15966797 5.95849609 C8.15586252 4.18154152 4.09152788 2.56259356 0 1 C0 0.67 0 0.34 0 0 Z " fill="#E5E4E4" transform="translate(163,1172)"/>
<path d="M0 0 C2.56687367 3.8503105 1.83288724 5.58569763 1 10 C1.99 10 2.98 10 4 10 C4 10.66 4 11.32 4 12 C3.34 12 2.68 12 2 12 C2 13.98 2 15.96 2 18 C1.67 18 1.34 18 1 18 C0.67 25.92 0.34 33.84 0 42 C-0.33 42 -0.66 42 -1 42 C-1.02503196 37.78654351 -1.04301426 33.57312835 -1.05493164 29.35961914 C-1.05990862 27.93122604 -1.06669262 26.50283788 -1.07543945 25.07446289 C-1.12557575 16.66631141 -0.98596687 8.36460055 0 0 Z " fill="#F5F4F4" transform="translate(1200,543)"/>
<path d="M0 0 C0.35360596 0.48895752 0.70721191 0.97791504 1.0715332 1.48168945 C3.94219094 3.74180092 6.24496545 3.33867132 9.85546875 3.29296875 C10.84792351 3.28660149 10.84792351 3.28660149 11.86042786 3.28010559 C13.9698691 3.26333693 16.07834846 3.22569099 18.1875 3.1875 C19.61912681 3.17245068 21.05076862 3.1587627 22.48242188 3.14648438 C25.98859288 3.1134403 29.49420254 3.06167167 33 3 C33 3.66 33 4.32 33 5 C22.11 5 11.22 5 0 5 C0 3.35 0 1.7 0 0 Z " fill="#E7E7E7" transform="translate(456,49)"/>
<path d="M0 0 C0.95261719 0.09023438 1.90523437 0.18046875 2.88671875 0.2734375 C5.3125 0.625 5.3125 0.625 7.3125 1.625 C7.3125 2.285 7.3125 2.945 7.3125 3.625 C0.3825 3.625 -6.5475 3.625 -13.6875 3.625 C-9.32627287 -0.73622713 -5.94300798 -0.59997625 0 0 Z " fill="#F8F7F7" transform="translate(576.6875,48.375)"/>
<path d="M0 0 C1.32 0.99 2.64 1.98 4 3 C3.34 3 2.68 3 2 3 C2 5.64 2 8.28 2 11 C1.67 11 1.34 11 1 11 C1 18.59 1 26.18 1 34 C1.66 34.33 2.32 34.66 3 35 C1.515 35.495 1.515 35.495 0 36 C-1.19412346 32.41762963 -1.12957863 29.52258543 -1.1328125 25.7421875 C-1.13376923 25.03853058 -1.13472595 24.33487366 -1.13571167 23.6098938 C-1.13639125 22.12550771 -1.13455245 20.64111863 -1.13037109 19.15673828 C-1.12500367 16.87656042 -1.13033171 14.59657811 -1.13671875 12.31640625 C-1.13605824 10.87499956 -1.13477765 9.433593 -1.1328125 7.9921875 C-1.13168457 6.67589355 -1.13055664 5.35959961 -1.12939453 4.00341797 C-1 1 -1 1 0 0 Z " fill="#F2F1F1" transform="translate(1200,617)"/>
<path d="M0 0 C6.11074066 0.66715365 12.31975319 1.53998268 17.96875 4.08203125 C18.95875 5.56703125 18.95875 5.56703125 19.96875 7.08203125 C19.41936768 6.96609619 18.86998535 6.85016113 18.30395508 6.73071289 C15.79644342 6.20171649 13.28884754 5.67312037 10.78125 5.14453125 C9.91693359 4.96212891 9.05261719 4.77972656 8.16210938 4.59179688 C4.10130919 3.7360727 0.04080686 2.88295341 -4.03125 2.08203125 C-2.03125 0.08203125 -2.03125 0.08203125 0 0 Z " fill="#F9F9F9" transform="translate(1022.03125,53.91796875)"/>
<path d="M0 0 C12.87 0.495 12.87 0.495 26 1 C22.64880481 3.23413013 21.5822245 3.23847762 17.67578125 3.1953125 C16.13374023 3.18564453 16.13374023 3.18564453 14.56054688 3.17578125 C13.48869141 3.15902344 12.41683594 3.14226563 11.3125 3.125 C10.22904297 3.11597656 9.14558594 3.10695312 8.02929688 3.09765625 C5.3526429 3.0740734 2.67643203 3.04116126 0 3 C0 2.01 0 1.02 0 0 Z " fill="#F0F0F0" transform="translate(489,51)"/>
<path d="M0 0 C0.33 0.66 0.66 1.32 1 2 C1.99 2.33 2.98 2.66 4 3 C3.01 3.33 2.02 3.66 1 4 C1 5.65 1 7.3 1 9 C0.34 9 -0.32 9 -1 9 C-1.03738281 9.58265625 -1.07476563 10.1653125 -1.11328125 10.765625 C-1.67209056 17.7343058 -3.15990547 24.26455965 -5 31 C-5.33 31 -5.66 31 -6 31 C-5.3361521 24.25087964 -4.28486811 17.65710652 -3 11 C-2.82210938 10.04738281 -2.64421875 9.09476563 -2.4609375 8.11328125 C-2.28820313 7.20964844 -2.11546875 6.30601562 -1.9375 5.375 C-1.78152344 4.55773437 -1.62554688 3.74046875 -1.46484375 2.8984375 C-1 1 -1 1 0 0 Z " fill="#EBEBEA" transform="translate(1198,1007)"/>
<path d="M0 0 C-1.35800471 2.96530497 -2.92428263 5.29131271 -5.0625 7.75 C-5.85333984 8.67039063 -5.85333984 8.67039063 -6.66015625 9.609375 C-7.10230469 10.06828125 -7.54445313 10.5271875 -8 11 C-8.33 11 -8.66 11 -9 11 C-9.25 4.375 -9.25 4.375 -7 1 C-4.59258404 0.33796061 -2.49346035 0 0 0 Z " fill="#EAE9EA" transform="translate(107,129)"/>
<path d="M0 0 C0.66 0.66 1.32 1.32 2 2 C1.67 2.33 1.34 2.66 1 3 C0.90001315 5.03709067 0.86919014 7.07764545 0.8671875 9.1171875 C0.86589844 10.36371094 0.86460938 11.61023438 0.86328125 12.89453125 C0.86714844 14.20808594 0.87101562 15.52164063 0.875 16.875 C0.87113281 18.18082031 0.86726563 19.48664062 0.86328125 20.83203125 C0.86457031 22.08113281 0.86585937 23.33023438 0.8671875 24.6171875 C0.86831543 25.76815918 0.86944336 26.91913086 0.87060547 28.10498047 C0.87079988 31.06832086 0.87079988 31.06832086 2 34 C1.72428861 36.00875442 1.39764263 38.01178687 1 40 C0.67 40 0.34 40 0 40 C-0.8028148 35.06591779 -1.12845356 30.36620801 -1.1328125 25.3515625 C-1.13376923 24.65356537 -1.13472595 23.95556824 -1.13571167 23.23641968 C-1.13638703 21.77593901 -1.13457809 20.31545523 -1.13037109 18.85498047 C-1.12496456 16.61028443 -1.13036262 14.36578406 -1.13671875 12.12109375 C-1.13605881 10.69791622 -1.13477939 9.27473882 -1.1328125 7.8515625 C-1.13168457 6.56072754 -1.13055664 5.26989258 -1.12939453 3.93994141 C-1 1 -1 1 0 0 Z " fill="#F0F0F0" transform="translate(1200,943)"/>
<path d="M0 0 C0.33 0 0.66 0 1 0 C1 2.31 1 4.62 1 7 C1.99 7.33 2.98 7.66 4 8 C3.34 8 2.68 8 2 8 C2 8.66 2 9.32 2 10 C1.34 10 0.68 10 0 10 C0 19.24 0 28.48 0 38 C-0.33 38 -0.66 38 -1 38 C-1.02487594 33.71330142 -1.04294275 29.42664205 -1.05493164 25.13989258 C-1.05993417 23.68415596 -1.0667383 22.22842429 -1.07543945 20.77270508 C-1.087685 18.67007212 -1.09326923 16.56750609 -1.09765625 14.46484375 C-1.10289307 13.202771 -1.10812988 11.94069824 -1.11352539 10.64038086 C-1.00072599 7.02328018 -0.58112682 3.56920449 0 0 Z " fill="#F1F0F1" transform="translate(1200,416)"/>
<path d="M0 0 C0.99 0.33 1.98 0.66 3 1 C3 6.61 3 12.22 3 18 C2.67 18 2.34 18 2 18 C1.67 19.98 1.34 21.96 1 24 C0.67 24 0.34 24 0 24 C0 16.08 0 8.16 0 0 Z " fill="#F4F4F4" transform="translate(51,431)"/>
<path d="M0 0 C0.33 0 0.66 0 1 0 C1 1.98 1 3.96 1 6 C1.66 6.33 2.32 6.66 3 7 C2.01 7.495 2.01 7.495 1 8 C1.01160156 8.55945313 1.02320313 9.11890625 1.03515625 9.6953125 C1.11923413 17.16623304 0.60066109 24.55609286 0 32 C-0.33 32 -0.66 32 -1 32 C-1.02914348 27.79168132 -1.04684712 23.58338878 -1.0625 19.375 C-1.07087891 18.18519531 -1.07925781 16.99539063 -1.08789062 15.76953125 C-1.09111328 14.61582031 -1.09433594 13.46210938 -1.09765625 12.2734375 C-1.10289307 11.21560059 -1.10812988 10.15776367 -1.11352539 9.06787109 C-0.99875578 5.96637654 -0.57696282 3.04652343 0 0 Z " fill="#EDEDED" transform="translate(1201,383)"/>
<path d="M0 0 C0.33 0 0.66 0 1 0 C1.69740804 2.76867997 2.38322853 5.53936862 3.0625 8.3125 C3.26166016 9.09818359 3.46082031 9.88386719 3.66601562 10.69335938 C3.84970703 11.45068359 4.03339844 12.20800781 4.22265625 12.98828125 C4.39547119 13.68477783 4.56828613 14.38127441 4.74633789 15.09887695 C5 17 5 17 4 20 C1.01754495 14.13219309 -1.07048992 8.66834624 -1 2 C-0.67 1.34 -0.34 0.68 0 0 Z " fill="#FBFBFB" transform="translate(56,1022)"/>
<path d="M0 0 C0 0.66 0 1.32 0 2 C-1.8984375 3.7265625 -1.8984375 3.7265625 -4.375 5.625 C-5.59316406 6.57246094 -5.59316406 6.57246094 -6.8359375 7.5390625 C-9 9 -9 9 -11 9 C-11 7.35 -11 5.7 -11 4 C-9.5437455 3.32880451 -8.08492133 2.66318193 -6.625 2 C-5.81289062 1.62875 -5.00078125 1.2575 -4.1640625 0.875 C-2 0 -2 0 0 0 Z " fill="#E8E9E9" transform="translate(141,97)"/>
<path d="M0 0 C6.45054982 1.35253464 12.71105679 3.03060233 19 5 C19 5.66 19 6.32 19 7 C12.45150687 5.83795007 6.25461856 4.26616615 0 2 C0 1.34 0 0.68 0 0 Z " fill="#F0F0F0" transform="translate(196,1185)"/>
<path d="M0 0 C1.32 0.66 2.64 1.32 4 2 C2.68 2.33 1.36 2.66 0 3 C0 12.57 0 22.14 0 32 C-0.33 32 -0.66 32 -1 32 C-1.02465504 27.60343827 -1.04283842 23.2069128 -1.05493164 18.81030273 C-1.05997121 17.31355082 -1.06680287 15.81680384 -1.07543945 14.32006836 C-1.08752159 12.17300193 -1.09323191 10.02600038 -1.09765625 7.87890625 C-1.10289307 6.5854126 -1.10812988 5.29191895 -1.11352539 3.95922852 C-1 1 -1 1 0 0 Z " fill="#F5F4F4" transform="translate(1200,357)"/>
<path d="M0 0 C1.485 0.99 1.485 0.99 3 2 C2.01 2.495 2.01 2.495 1 3 C0.67 12.9 0.34 22.8 0 33 C-0.33 33 -0.66 33 -1 33 C-1.02465392 28.46102295 -1.04283789 23.92208457 -1.05493164 19.38305664 C-1.0599714 17.83780234 -1.0668032 16.29255284 -1.07543945 14.74731445 C-1.08752076 12.53074971 -1.09323173 10.31424782 -1.09765625 8.09765625 C-1.10281754 7.4028566 -1.10797882 6.70805695 -1.11329651 5.99220276 C-1.11349277 4.3277067 -1.06189129 2.66334501 -1 1 C-0.67 0.67 -0.34 0.34 0 0 Z " fill="#F2F2F2" transform="translate(1200,487)"/>
<path d="M0 0 C-0.33 0.66 -0.66 1.32 -1 2 C-2.99609375 2.59765625 -2.99609375 2.59765625 -5.4375 3.0625 C-8.82474047 3.7144301 -8.82474047 3.7144301 -12 5 C-12 4.34 -12 3.68 -12 3 C-12.99 2.67 -13.98 2.34 -15 2 C-13.43883181 1.66048381 -11.87598662 1.32867456 -10.3125 1 C-9.44238281 0.814375 -8.57226562 0.62875 -7.67578125 0.4375 C-5.06287036 0.01027953 -2.64186962 -0.07616201 0 0 Z " fill="#E6E6E6" transform="translate(1024,1195)"/>
<path d="M0 0 C1.65322266 0.01740234 1.65322266 0.01740234 3.33984375 0.03515625 C4.99693359 0.04869141 4.99693359 0.04869141 6.6875 0.0625 C7.54214844 0.07410156 8.39679688 0.08570313 9.27734375 0.09765625 C8.94734375 0.75765625 8.61734375 1.41765625 8.27734375 2.09765625 C6.0625 2.58203125 6.0625 2.58203125 3.33984375 2.84765625 C2.44394531 2.945625 1.54804687 3.04359375 0.625 3.14453125 C-1.72265625 3.09765625 -1.72265625 3.09765625 -3.72265625 1.09765625 C-2.72265625 0.09765625 -2.72265625 0.09765625 0 0 Z " fill="#F0F0F0" transform="translate(1132.72265625,1138.90234375)"/>
<path d="M0 0 C2.56687367 3.8503105 1.83288724 5.58569763 1 10 C1.99 10 2.98 10 4 10 C4 10.66 4 11.32 4 12 C3.34 12 2.68 12 2 12 C2 13.98 2 15.96 2 18 C1.67 18 1.34 18 1 18 C-0.32594359 12.03325384 -0.0884587 6.07416385 0 0 Z " fill="#EBEBEB" transform="translate(1200,543)"/>
<path d="M0 0 C0.66 0.99 1.32 1.98 2 3 C1.5390625 5.26171875 1.5390625 5.26171875 0.625 7.6875 C0.18027344 8.89986328 0.18027344 8.89986328 -0.2734375 10.13671875 C-0.51320313 10.75160156 -0.75296875 11.36648438 -1 12 C-1.66 12 -2.32 12 -3 12 C-2.01 8.04 -1.02 4.08 0 0 Z " fill="#F2F2F2" transform="translate(1191,1038)"/>
<path d="M0 0 C0.66 0.33 1.32 0.66 2 1 C2 4.74161103 1.48661829 8.28953557 1 12 C0.67 12 0.34 12 0 12 C-0.38897161 10.37828761 -0.76078298 8.75245075 -1.125 7.125 C-1.43824219 5.76761719 -1.43824219 5.76761719 -1.7578125 4.3828125 C-1.83773438 3.59648438 -1.91765625 2.81015625 -2 2 C-1.34 1.34 -0.68 0.68 0 0 Z " fill="#EDEDED" transform="translate(1111,1155)"/>
<path d="M0 0 C2 2 2 2 2.1953125 4.1640625 C2.16050781 5.38222656 2.16050781 5.38222656 2.125 6.625 C2.10695313 7.44226563 2.08890625 8.25953125 2.0703125 9.1015625 C2.04710937 9.72804687 2.02390625 10.35453125 2 11 C1.01 11 0.02 11 -1 11 C-0.67 7.37 -0.34 3.74 0 0 Z " fill="#ECEDED" transform="translate(1176,163)"/>
<path d="M0 0 C4.07551486 2.03775743 5.29573847 3.51063028 8 7 C8.99 7.66 9.98 8.32 11 9 C9.35 9.33 7.7 9.66 6 10 C4.02 6.7 2.04 3.4 0 0 Z " fill="#E8E8E8" transform="translate(1164,153)"/>
<path d="M0 0 C1.258125 -0.04125 2.51625 -0.0825 3.8125 -0.125 C4.52019531 -0.14820313 5.22789062 -0.17140625 5.95703125 -0.1953125 C8 0 8 0 11 2 C6.98195309 2.84098656 3.98196457 3.05404945 0 2 C0 1.34 0 0.68 0 0 Z " fill="#F0EFF0" transform="translate(261,1198)"/>
<path d="M0 0 C0 0.66 0 1.32 0 2 C-1.26418246 2.69965443 -2.53665402 3.38434763 -3.8125 4.0625 C-4.52019531 4.44535156 -5.22789063 4.82820313 -5.95703125 5.22265625 C-8 6 -8 6 -11 5 C-9.54462432 4.16151196 -8.08559627 3.32936066 -6.625 2.5 C-5.81289062 2.0359375 -5.00078125 1.571875 -4.1640625 1.09375 C-2 0 -2 0 0 0 Z " fill="#EFEFEF" transform="translate(1078,1176)"/>
<path d="M0 0 C-2.39763185 2.39763185 -3.33273498 2.34280586 -6.625 2.625 C-7.44226563 2.69976562 -8.25953125 2.77453125 -9.1015625 2.8515625 C-9.72804687 2.90054688 -10.35453125 2.94953125 -11 3 C-7.65817252 -1.0165182 -4.96805907 -0.24433077 0 0 Z " fill="#F0F0F0" transform="translate(237,56)"/>
<path d="M0 0 C1.32 0.99 2.64 1.98 4 3 C2.68 3.33 1.36 3.66 0 4 C0 6.64 0 9.28 0 12 C-0.33 12 -0.66 12 -1 12 C-1.02698189 10.37509046 -1.04638757 8.75005367 -1.0625 7.125 C-1.07410156 6.22007812 -1.08570313 5.31515625 -1.09765625 4.3828125 C-1 2 -1 2 0 0 Z " fill="#EDECEC" transform="translate(1200,812)"/>
<path d="M0 0 C1.32 0.66 2.64 1.32 4 2 C2.68 2.33 1.36 2.66 0 3 C0 6.3 0 9.6 0 13 C-0.33 13 -0.66 13 -1 13 C-1.02686553 11.02090602 -1.04633375 9.04171029 -1.0625 7.0625 C-1.07410156 5.96035156 -1.08570313 4.85820312 -1.09765625 3.72265625 C-1 1 -1 1 0 0 Z " fill="#EFEFEE" transform="translate(1200,357)"/>
<path d="M0 0 C0.66 0 1.32 0 2 0 C2.33 2.97 2.66 5.94 3 9 C2.01 9.495 2.01 9.495 1 10 C0.67 6.7 0.34 3.4 0 0 Z " fill="#E7E7E7" transform="translate(1196,231)"/>
<path d="M0 0 C2.52259061 1.97420135 2.9929808 2.96745642 3.6875 6.1875 C3.790625 7.115625 3.89375 8.04375 4 9 C3.01 9.495 3.01 9.495 2 10 C0.68373308 6.38026598 0 3.90432869 0 0 Z " fill="#E5E5E5" transform="translate(62,1042)"/>
<path d="M0 0 C1.32 0.99 2.64 1.98 4 3 C3.34 3 2.68 3 2 3 C2 5.64 2 8.28 2 11 C1.67 11 1.34 11 1 11 C0.67 7.37 0.34 3.74 0 0 Z " fill="#E4E4E4" transform="translate(1200,617)"/>
<path d="M0 0 C1.80411967 2.75924185 2.0127245 3.88972103 1.625 7.25 C1.41875 8.1575 1.2125 9.065 1 10 C0.67 10 0.34 10 0 10 C-0.19412181 8.52168779 -0.38012131 7.04230684 -0.5625 5.5625 C-0.66691406 4.73878906 -0.77132813 3.91507813 -0.87890625 3.06640625 C-0.91886719 2.38449219 -0.95882813 1.70257813 -1 1 C-0.67 0.67 -0.34 0.34 0 0 Z " fill="#F0F0F0" transform="translate(1195,221)"/>
<path d="M0 0 C0.33 0 0.66 0 1 0 C1 2.64 1 5.28 1 8 C0.67 8 0.34 8 0 8 C0 5.36 0 2.72 0 0 Z " fill="#E6E6E6" transform="translate(1201,754)"/>
<path d="M0 0 C0.33 0 0.66 0 1 0 C1 2.64 1 5.28 1 8 C0.67 8 0.34 8 0 8 C0 5.36 0 2.72 0 0 Z " fill="#E6E6E6" transform="translate(1201,508)"/>
<path d="M0 0 C0.33 0 0.66 0 1 0 C1 2.31 1 4.62 1 7 C0.67 7 0.34 7 0 7 C0 4.69 0 2.38 0 0 Z " fill="#E5E5E5" transform="translate(1201,364)"/>
<path d="M0 0 C0.33 0 0.66 0 1 0 C1 2.31 1 4.62 1 7 C0.67 7 0.34 7 0 7 C0 4.69 0 2.38 0 0 Z " fill="#E6E5E6" transform="translate(1201,314)"/>
<path d="M0 0 C0.33 0 0.66 0 1 0 C1 2.31 1 4.62 1 7 C0.67 7 0.34 7 0 7 C0 4.69 0 2.38 0 0 Z " fill="#E5E5E5" transform="translate(1201,305)"/>
<path d="M0 0 C0.33 0 0.66 0 1 0 C1 1.65 1 3.3 1 5 C0.67 5 0.34 5 0 5 C0 3.35 0 1.7 0 0 Z " fill="#E7E7E7" transform="translate(1201,831)"/>
<path d="M0 0 C1 4 1 4 1 4 Z " fill="#E7E6E6" transform="translate(1201,825)"/>
<path d="" fill="#E7E6E6" transform="translate(0,0)"/>
<path d="" fill="#E6E6E6" transform="translate(0,0)"/>
<path d="" fill="#E5E5E5" transform="translate(0,0)"/>
<path d="" fill="#E5E5E5" transform="translate(0,0)"/>
<path d="" fill="#E7E6E6" transform="translate(0,0)"/>
<path d="" fill="#E6E6E5" transform="translate(0,0)"/>
<path d="" fill="#E7E6E6" transform="translate(0,0)"/>
<path d="" fill="#E5E5E5" transform="translate(0,0)"/>
<path d="" fill="#E9E8E9" transform="translate(0,0)"/>
<path d="" fill="#E7E7E6" transform="translate(0,0)"/>
<path d="" fill="#E5E5E5" transform="translate(0,0)"/>
<path d="" fill="#E6E6E6" transform="translate(0,0)"/>
<path d="" fill="#E5E5E5" transform="translate(0,0)"/>
<path d="" fill="#E7E6E6" transform="translate(0,0)"/>
<path d="" fill="#E8E7E8" transform="translate(0,0)"/>
<path d="" fill="#E5E5E5" transform="translate(0,0)"/>
<path d="" fill="#E5E5E5" transform="translate(0,0)"/>
<path d="" fill="#E6E6E6" transform="translate(0,0)"/>
<path d="" fill="#E5E5E5" transform="translate(0,0)"/>
<path d="" fill="#E6E6E6" transform="translate(0,0)"/>
<path d="" fill="#E6E6E5" transform="translate(0,0)"/>
<path d="" fill="#E5E5E5" transform="translate(0,0)"/>
<path d="" fill="#E6E6E5" transform="translate(0,0)"/>
<path d="" fill="#E3E5E5" transform="translate(0,0)"/>
</svg>
